<?xml version="1.0" encoding="utf-8"?>
<!-- Generator: Adobe Illustrator 26.0.0, SVG Export Plug-In . SVG Version: 6.00 Build 0)  -->
<svg version="1.1" id="Capa_1" xmlns="http://www.w3.org/2000/svg" xmlns:xlink="http://www.w3.org/1999/xlink" x="0px" y="0px"
	 viewBox="0 0 500 500" style="enable-background:new 0 0 500 500;" xml:space="preserve">
<style type="text/css">
	.st0{fill:none;}
	.st1{fill:#37E2D5;}
	.st2{fill:#C70A80;}
	.st3{fill:#FBCB0A;}
	.st4{fill:#590696;}
	.st5{enable-background:new    ;}
</style>
<rect x="-2936.1" y="1362.4" class="st0" width="367.9" height="66.3"/>
<polyline class="st0" points="-2659.9,1492.6 -2801.3,1499.7 -2801.3,1367.3 "/>
<g>
	<g>
		<path class="st1" d="M-2968.8,1496.9c11.4,26.2,29.3,52.3,48.9,71.7c20.3,20.1,45.2,36.7,71.6,47.6
			c37.5,15.6,75.3,20.8,115.2,15.6c23.1-3,42.6-8.6,62.3-17.4c58.3-26.5,102-76.2,120.5-137c3.9-12.7,6.9-27.6,5.5-27.5
			c-0.7,0-1.9,2.9-3.1,7.9c-5.5,21.2-11.5,36.7-21,53.1c-7.9,13.8-14.1,22.3-24.5,34c-11.7,13.2-21.4,21.4-37.1,32
			c-24.3,16.2-49.3,26.3-76.8,30.9c-68.3,11.3-137.5-13.4-183.6-65.4c-3.8-4.4-10.3-12.8-15.5-20.6l-9.1-13.2l-26.9-8.2
			c-14.9-4.5-27.4-8.2-27.7-8.2C-2970.5,1492.2-2970,1494.4-2968.8,1496.9z"/>
		<path class="st2" d="M-2642.7,1560.7c26.8-19,48-45.8,60.1-76.3c3.8-9.3,8.4-28.1,9.7-38.5c1.3-10.7,1.5-26,0.4-34.2
			c-0.5-3.5-0.6-6.4-0.4-6.7c0.5-0.2,10.9,0.1,30.4,1.1c4.4,0.1,7.5,0.1,6.8-0.2c-0.6-0.4-20.3-10.1-43.6-21.4l-42.6-20.8l2.2,5.7
			c17.6,44,11.5,93.5-16.1,133.7c-35.5,51.5-100,76.3-160.1,61.4c-33.9-8.5-63.5-28.6-81.2-55.4c-3.8-5.7-4.4-6.3-3.8-4
			c1,3.5,12.5,21.8,18.2,28.8c35.5,43.2,91.1,64.1,148.1,55.6c11.3-1.7,26.2-5.8,37.3-10.3
			C-2667.2,1575.3-2650.9,1566.6-2642.7,1560.7z"/>
		<path class="st3" d="M-2867.3,1285.4c-26.8,19-48,45.8-60.1,76.3c-3.8,9.3-8.4,28.1-9.7,38.5c-1.3,10.7-1.5,26-0.4,34.2
			c0.5,3.5,0.6,6.4,0.4,6.7c-0.5,0.2-10.9-0.1-30.4-1.1c-4.4-0.1-7.5-0.1-6.8,0.2c0.6,0.4,20.3,10.1,43.6,21.4l42.6,20.8l-2.2-5.7
			c-17.6-44-11.5-93.5,16.1-133.7c35.5-51.5,100-76.3,160.1-61.4c33.9,8.5,63.5,28.6,81.2,55.4c3.8,5.7,4.4,6.3,3.8,4
			c-1-3.5-12.5-21.8-18.2-28.8c-35.5-43.2-91.1-64.1-148.1-55.6c-11.3,1.7-26.2,5.8-37.3,10.3
			C-2842.8,1270.9-2859.2,1279.6-2867.3,1285.4z"/>
		<path class="st4" d="M-2541.2,1346.1c-11.5-26.2-29.4-52.6-49.1-72.1c-20.3-20.2-45.2-36.9-71.5-48
			c-37.4-15.9-75.1-21.2-114.8-16.2c-23,2.9-42.4,8.4-61.9,17.1c-57.8,26.3-101,75.6-119.3,136.4c-3.9,12.7-6.7,27.6-5.3,27.5
			c0.7,0,1.8-2.9,3-7.9c5.3-21.2,11.3-36.6,20.6-52.9c7.8-13.8,13.8-22.3,24.2-33.9c11.6-13.1,21.2-21.3,36.7-31.7
			c24.1-16.1,48.9-26,76.3-30.4c68-10.9,137,14.2,183.3,66.5c3.8,4.4,10.3,12.8,15.6,20.7l9.1,13.3l26.9,8.2
			c14.9,4.6,27.3,8.4,27.6,8.4C-2539.4,1350.8-2540,1348.7-2541.2,1346.1z"/>
	</g>
	<g>
		<g class="st5">
			<path d="M-2801.4,1419.8c0.7,1.6,1.4,3.2,1.9,4.6c-0.7,0.7-1.6,1.3-2.7,1.8c-1.1,0.6-2.4,1.1-3.9,1.5c-0.4,0.1-0.9,0.2-1.4,0.4
				c-0.6,0.2-1.2,0.3-1.9,0.5c-1,0.1-2.1,0.2-3.5,0.3s-3,0.3-4.8,0.6c-2.6,2.1-4.9,3.7-7,4.8c-2,1.2-3.7,1.9-5.1,2.3l-0.8,0.7
				c-1.1,0.5-2.5,0.9-4.2,1.2c-1.6,0.3-3.5,0.6-5.8,0.8c-0.4-0.1-0.8-0.3-1.2-0.7s-0.9-0.9-1.4-1.6c0.3-0.4,0.8-0.9,1.3-1.4
				c0.5-0.6,1.1-1.3,1.7-2.1c0.5-0.7,1.1-1.3,1.8-1.8s1.6-0.8,2.6-1c1.1-0.2,2.3-0.6,3.7-1c0.3-0.3,0.7-0.5,1.2-0.8
				c0.5-0.3,1-0.6,1.6-1c0.8-0.4,1.6-0.9,2.4-1.6c0.8-0.7,1.8-1.5,2.8-2.5c1.3-1.3,2.4-2.4,3.2-3.1c0.8-0.8,1.3-1.3,1.5-1.5
				c0.3-0.5,0.6-0.9,0.9-1.3c0.3-0.4,0.7-0.7,1.1-1.1c0.5-0.8,1.1-1.8,1.8-3c0.7-1.2,1.5-2.6,2.5-4.3c0.2-0.2,0.4-0.4,0.6-0.7
				c0.3-0.3,0.5-0.7,0.9-1c0.7-0.8,1.2-1.9,1.5-3.5s0.5-3.5,0.5-5.7c0-1.5-0.4-3.2-1.2-4.8c-0.8-1.7-2-3.5-3.6-5.3
				c-1.4-1.5-2.8-2.9-4.4-4.2c-1.5-1.2-3.1-2.2-4.7-3c-1.2-0.6-2.3-1.2-3.4-1.8c-1.1-0.6-2-1.1-2.9-1.6c-0.5,1.7-1.1,4-1.8,6.9
				c-0.7,3-1.5,6.5-2.4,10.8c-1,4.8-1.8,8.6-2.3,11.5s-0.8,4.9-0.8,5.9c-0.2,0.8-0.4,1.7-0.5,2.5l-2,9.9c-1.2,2.3-2.2,4-3,5.1
				s-1.5,1.7-2,1.7c-0.2,0-0.5-0.2-0.7-0.6s-0.4-1-0.6-1.8l0.6-2.9c-0.1-0.2-0.2-0.5-0.3-0.9c0.2-2.2,0.4-4.4,0.6-6.6
				c0.2-2.2,0.4-4.5,0.6-6.7c0.2-2.5,0.4-4.8,0.8-7c0.3-2.2,0.7-4.2,1.1-6l-0.6-2.6c0.2-0.6,0.4-1.4,0.6-2.4c0.2-0.9,0.3-2,0.5-3.2
				c0.1-1.5,0.3-2.8,0.4-3.8c0.1-1,0.2-1.6,0.4-2c0.1-0.4,0.3-1,0.4-1.7c0.2-0.7,0.3-1.5,0.5-2.4c0.1-0.4,0.7-1.1,1.8-2.1
				c1.1-1.1,1.8-1.9,2.1-2.4c0.7-0.1,1.2-0.2,1.6-0.4c0.3-0.2,0.5-0.4,0.5-0.7c0-0.2-0.2-0.4-0.6-0.6c-0.4-0.2-1-0.3-1.7-0.4
				c-0.4,0-0.8,0-1.3-0.1s-1-0.2-1.5-0.4l-4.1-2c-0.9-0.4-1.5-0.8-2-1.2s-0.7-0.8-0.7-1.3c0.2-0.7,0.4-1.3,0.5-2
				c-0.2-0.7-0.4-1.2-0.6-1.7s-0.2-0.8-0.2-1c0-0.3,0.1-0.5,0.2-0.7c0.1-0.2,0.4-0.3,0.6-0.3c0.9,0.2,1.8,0.3,2.5,0.5
				c0.3-0.1,0.7-0.2,1-0.3s0.7-0.2,1-0.4c0.8,0,1.5,0.1,2.2,0.2c0.6,0.1,1.1,0.2,1.5,0.4c0.5,0.2,1,0.5,1.5,0.8
				c0.5,0.3,1,0.5,1.5,0.7c0.4-0.1,0.9-0.2,1.6-0.3c0.2,0,0.4,0,0.6,0.1c0.4,0.3,0.9,0.5,1.5,0.7c0.6,0.2,1.2,0.4,2,0.6
				c0.8,0.1,1.5,0.3,2.1,0.4c0.6,0.2,1,0.3,1.4,0.5c3.6,1.8,6.7,3.6,9.3,5.2c2.7,1.6,4.9,3.2,6.6,4.8c2.8,2.4,4.8,4.9,6.1,7.7
				c1.3,2.7,2,5.6,2,8.5c0,4.7-1.4,9.7-4.2,15c-2.8,5.3-6.9,10.8-12.4,16.6c0.5-0.2,1.1-0.4,1.9-0.7c0.8-0.2,1.7-0.5,2.7-0.9
				c2.1-0.5,4.3-1,6.5-1.5c1.4-0.4,2.6-0.8,3.6-1.3C-2802.8,1421-2802,1420.5-2801.4,1419.8z"/>
			<path d="M-2800.1,1417.7l4.6-3c0.2-0.2,0.4-0.4,0.6-0.7c0.2-0.3,0.5-0.7,0.8-1.2c0.2-0.4,0.5-0.8,0.9-1.1
				c0.4-0.3,0.8-0.6,1.3-0.8c0.3-0.3,0.7-0.8,1.2-1.3s1.1-1.1,1.9-1.8c0.4-0.2,0.8-0.5,1.4-0.9c0.6-0.4,1.2-0.9,1.9-1.5
				c3.1-2.9,5.7-5,8-6.5c2.3-1.4,4.2-2.2,5.8-2.2c0.9,0,1.5,0.2,1.9,0.6c0.4,0.4,0.6,0.9,0.6,1.6c0,0.7-0.1,1.3-0.4,1.9
				c-0.3,0.5-0.6,1-1.2,1.4c-0.8,0.6-1.7,1.3-2.7,2c-0.5,0.7-1.2,1.5-2,2.2c-0.8,0.8-1.7,1.6-2.7,2.3c-0.3,0.4-0.6,0.8-0.9,1.2
				c-0.2,0.2-0.5,0.5-1,0.9s-1.1,0.9-1.9,1.5c-0.3,0.7-1.1,1.7-2.2,2.9c-1.1,1.2-2.6,2.6-4.5,4.2c-0.2,0.2-0.7,0.8-1.3,1.6
				c-0.6,0.8-1.4,1.9-2.4,3.3l0.4,0.5c0.7-0.2,1.5-0.6,2.3-1.2c0.8-0.6,1.7-1.3,2.7-2.3c1.1-1,2.1-1.9,2.8-2.5
				c0.7-0.7,1.2-1.1,1.5-1.3c0.2-0.1,0.5-0.3,0.7-0.4c0.2-0.1,0.5-0.3,0.8-0.5c1.5-1.8,3-3.2,4.3-4.1s2.6-1.3,3.7-1.3
				c0.7,0,1.2,0.3,1.6,0.8c0.4,0.6,0.6,1.4,0.7,2.5c-0.1,1.7-0.1,3.3-0.1,4.8c0,1.1,0.3,2,0.9,2.9c0.6,0.9,1.4,1.3,2.4,1.3
				c0.3,0,0.6-0.1,0.9-0.3c0.3-0.2,0.6-0.4,0.9-0.7c0.2-0.3,0.5-0.6,0.7-0.9c0.2-0.3,0.4-0.5,0.7-0.8c0.1-0.1,0.3-0.2,0.6-0.4
				c0.3-0.2,0.5-0.4,0.7-0.6c0.5,1,0.9,1.9,1.2,2.6c0.3,0.8,0.6,1.4,0.7,2c-0.8,0.7-1.5,1.4-2.3,2.2c-0.8,0.8-1.6,1.5-2.4,2.1
				c-1,0.8-2,1.4-2.9,1.7c-0.9,0.3-1.9,0.6-2.8,0.6c-2.2,0-3.9-0.6-5-1.9c-1.2-1.2-1.9-3.1-2.1-5.6c0-0.3,0-0.6-0.1-0.9
				s-0.3-0.6-0.5-1c-0.2,0.2-0.4,0.3-0.6,0.5c-0.2,0.2-0.4,0.4-0.7,0.7c-0.4,0.3-1,0.8-1.6,1.3c-0.7,0.5-1.4,1.1-2.3,1.8
				c-1.2,1.2-2.2,2.2-3,3c-0.8,0.8-1.4,1.3-1.7,1.7c-0.7,0.6-1.5,1.1-2.3,1.7c-0.9,0.6-1.9,1.2-3,1.8c-0.7,0.4-1.3,0.7-1.8,0.9
				c-0.5,0.2-0.9,0.3-1.1,0.3c-1.6,0-2.8-0.4-3.6-1.2c-0.8-0.8-1.2-2-1.2-3.6c0-0.9,0.2-1.8,0.6-2.6c0.4-0.8,1-1.6,1.7-2.4
				c0.1-0.4,0.1-0.8,0.1-1.1c0-0.2,0-0.3-0.1-0.5c-0.1-0.2-0.2-0.4-0.3-0.6c-0.2-0.5-0.4-1-0.7-1.6s-0.5-1.2-0.8-1.9
				c0.1-0.1,0.3-0.4,0.6-0.8C-2800.7,1418.7-2800.4,1418.3-2800.1,1417.7z"/>
			<path d="M-2763,1419.9l0.3-0.4l0.2-0.5c0.9-1.2,2.5-2.9,4.8-4.9s3.9-3.6,4.7-4.9c0.3-0.5,0.7-0.9,1.2-1.2
				c0.4-0.2,0.9-0.4,1.3-0.4c1.2,0,2.2,0.3,3,0.9s1.3,1.5,1.6,2.6c0.2,1,0.5,2.1,0.7,3.1c0.2,1.1,0.4,2.1,0.5,3.2
				c0.2,0.7,0.5,1.7,0.9,3c0.3,1.4,0.6,2.1,0.8,2.3c0.2,0.3,0.4,0.6,0.8,0.7c0.3,0.2,0.8,0.2,1.3,0.2c0.6,0,1.2-0.1,1.9-0.3
				c0.6-0.2,1.3-0.6,2-1.1c0.5-0.4,1-0.9,1.6-1.3c0.6-0.5,1.1-0.9,1.6-1.3l2,4.6c-0.5,0.5-1.3,1.1-2.1,1.8c-0.9,0.7-2,1.5-3.2,2.4
				c-1.4,1-2.6,1.8-3.5,2.2c-1,0.5-1.7,0.7-2.2,0.7c-3.1,0-5-0.4-5.9-1.1s-1.9-2.7-3-5.9c-0.1-0.3-0.3-0.6-0.6-1s-0.6-0.8-0.9-1.3
				c-0.4-0.8-0.8-1.3-1.1-1.7s-0.6-0.6-0.8-0.6c-0.5,0-1.3,0.4-2.2,1.1c-0.9,0.7-2,1.8-3.3,3.2c-0.2-0.4-0.4-1-0.6-1.6
				c-0.3-0.6-0.5-1.3-0.8-2.1c-0.1-0.2-0.2-0.4-0.3-0.6C-2762.8,1420.1-2762.9,1420-2763,1419.9z M-2742,1380.2
				c0.8,0,1.5,0.2,1.8,0.5c0.4,0.3,0.6,0.8,0.6,1.5c-0.2,0.9-0.4,1.7-0.5,2.4c-0.3,1.2-0.6,2.2-0.9,3c-0.3,0.8-0.4,1.3-0.6,1.7
				c-0.3,0.7-0.7,1.4-1.2,1.9c-0.5,0.6-1.1,1-1.9,1.5c-0.8,0.5-1.4,0.9-1.9,1.1s-0.9,0.3-1.1,0.3c-0.6-0.1-1.1-0.1-1.6-0.2
				s-1-0.1-1.5-0.1c-0.4-0.2-0.8-0.7-1-1.4c-0.3-0.7-0.4-1.6-0.4-2.7c0-1,0.6-2.3,1.8-3.8s2.3-2.3,3.2-2.4c0.6-0.7,1.2-1.5,2-2.4
				c0.3-0.2,0.8-0.4,1.3-0.6S-2742.7,1380.2-2742,1380.2z"/>
			<path d="M-2734.2,1419.9c0.3-0.3,0.6-0.7,0.9-1.2c0.3-0.5,0.7-1,1.2-1.6l3.3-2.9c0.1-0.1,0.2-0.2,0.2-0.4c0-0.2,0-0.4,0-0.7
				c0-0.4-0.1-0.8-0.2-1.1c0-0.8,0.2-2.1,0.5-3.9s0.6-2.9,0.8-3.3l-0.3-1c0.4-2.2,1-4.7,1.8-7.4c0.8-2.7,1.7-5.6,2.7-8.7
				c0.3-0.5,0.7-1.2,1.1-2c0.4-0.8,0.8-1.8,1.3-2.8c0.6-1.7,1.3-3.6,2.3-5.5c0.9-1.9,2-3.9,3.2-5.9c1.6-2.6,3-4.6,4.2-6
				c1.2-1.3,2.3-2,3.3-2c1.9,0,3.3,0.4,4,1.1c0.7,0.8,1.1,2.2,1.1,4.3c0,0.5-0.1,1.4-0.3,2.5s-0.3,2-0.3,2.5c0,0.6-0.2,1.4-0.6,2.4
				c-0.4,1-0.6,2-0.6,2.9c0,0.3-0.1,0.5-0.3,0.8v0.7c-0.1,0.5-0.3,1-0.6,1.7c-0.3,0.7-0.6,1.5-1.1,2.4c-0.2,0.8-0.5,1.8-0.9,2.9
				s-0.8,2.3-1.3,3.6c-0.2,0.3-0.5,0.7-0.8,1.2s-0.7,1-1,1.6c-0.1,0.4-0.3,0.9-0.5,1.5s-0.6,1.2-1,2c-0.2,0.4-0.5,0.8-0.8,1.3
				s-0.7,1.1-1.2,1.8c-0.2,0.3-0.4,0.8-0.7,1.3c-0.2,0.5-0.5,1.1-0.8,1.7c-0.4,0.6-0.9,1.3-1.5,2.1c-0.6,0.8-1.3,1.8-2.1,3
				c-1,1.8-2.1,3.6-3.2,5.3c0,3.3,0.6,5.7,1.9,7.4c1.3,1.7,3.2,2.5,5.8,2.5c0.2,0,0.7-0.1,1.5-0.4c0.8-0.2,2-0.6,3.5-1.1
				c0.4-0.3,1-0.6,1.6-1.1s1.3-1.1,2.1-1.7l2,4.6c-0.9,0.8-1.7,1.6-2.6,2.4c-0.9,0.8-1.8,1.6-2.7,2.4c-1,0.9-2.1,1.5-3.2,2
				c-1.1,0.5-2.1,0.7-3.2,0.7c-0.5,0-1.4-0.1-2.5-0.2s-1.9-0.2-2.5-0.2c-1.9,0-3.4-0.8-4.7-2.3c-1.2-1.5-2.1-3.8-2.6-6.8
				c-0.1-0.3-0.2-0.6-0.3-0.8c-0.1-0.2-0.3-0.5-0.6-0.8c-0.4,0.4-0.9,1-1.5,1.6s-1.3,1.3-2.1,2.1L-2734.2,1419.9z M-2710.2,1380.4
				l-0.4-0.2c-1.9,1.8-3.3,3.5-4.3,5.1s-1.4,3.2-1.4,4.7c0,0.2-0.1,0.6-0.3,1.2s-0.5,1.3-1,2.1c-0.5,1-1.1,2.2-1.7,3.4
				c-0.6,1.9-1.1,3.4-1.5,4.6c-0.3,1.2-0.5,2-0.5,2.5l0.3,0.4c0.3,0,0.7-0.3,1.1-0.9c0.4-0.6,0.9-1.4,1.5-2.5
				c0.3-0.6,0.7-1.3,1.2-2.1c0.5-0.8,1.1-1.8,1.7-2.9c0.5-0.7,1.4-2.6,2.6-5.7c1.2-3.1,1.8-5,1.9-5.8c0-0.7,0.1-1.3,0.3-2
				C-2710.5,1381.7-2710.4,1381-2710.2,1380.4z"/>
			<path d="M-2705.8,1419.9c0.8-0.8,2-1.8,3.5-2.9c1.6-1.1,2.8-2.1,3.5-2.8c0.5-0.6,1.2-1.3,2-2.2s1.8-1.9,2.9-3
				c0.7-0.6,1.3-1.1,2-1.4c0.6-0.3,1.3-0.5,1.9-0.5c0.8,0,1.4,0.2,1.9,0.6s0.7,1,0.7,1.9c0,1.3-0.5,3.4-1.5,6.3
				c-1,2.9-1.5,5.1-1.5,6.6c0,0.3,0.1,0.6,0.2,0.7c0.2,0.1,0.3,0.2,0.5,0.2h0.3c0.6-0.4,1.4-0.9,2.2-1.5c0.9-0.6,1.8-1.4,2.9-2.3
				c0.9-0.8,2-1.9,3.2-3.2c1.3-1.3,2.8-2.8,4.6-4.5c0.7-0.5,1.4-1.2,2.3-2.1c0.9-0.8,1.8-1.8,2.9-3c0.4-0.6,1-1.1,1.8-1.4
				c0.8-0.3,1.8-0.5,2.9-0.5c0.8,0,1.4,0.1,1.7,0.4c0.4,0.3,0.6,0.7,0.6,1.3c0,0.2,0,0.5-0.1,0.7c0,0.2-0.1,0.4-0.1,0.6
				c-0.2,1-0.6,2.2-1.1,3.7s-1,3.2-1.7,5.2c-0.6,1.2-1.2,2.7-1.8,4.5c-0.6,1.7-1.3,3.6-2,5.7l0.4,0.5c0.7-0.3,1.7-1.1,3.1-2.4
				c1.4-1.3,3.1-2.9,5.2-5.1l2,4.6c-0.3,0.3-0.6,0.6-1,1s-0.9,0.8-1.5,1.2c-3.6,2.6-6.7,5.1-9.2,7.6c-2.6,2.5-4.6,5-6.1,7.4
				c-2.2,3.7-4.1,6.7-5.6,9c-1.5,2.3-2.6,3.9-3.2,4.9c-2.3,3.1-4.5,5.3-6.6,6.8s-4.1,2.2-6.1,2.2c-0.7,0-1.3-0.2-1.6-0.5
				c-0.3-0.3-0.5-0.8-0.5-1.4c0-0.3,0.1-0.8,0.3-1.3s0.5-1,0.9-1.6c0.6-0.9,1.2-1.8,1.8-2.8l1.5-1.3c0.1-0.4,0.2-0.7,0.2-0.9
				c0.1-0.2,0.3-0.4,0.6-0.6c0.2-0.2,0.5-0.5,0.9-0.8c0.2-0.6,0.9-1.6,1.9-3s2.5-3.2,4.3-5.4c1.4-1.6,2.6-3,3.8-4.3
				c1.1-1.3,2.1-2.3,2.9-3.2c0.1-0.3,0.3-0.6,0.4-1c0.2-0.4,0.3-0.7,0.4-1.1c0.4-0.9,0.9-1.9,1.4-3.2c0.5-1.2,1.1-2.7,1.9-4.4
				c0.3-1,0.6-2.1,0.9-3.3c0.2-1.3,0.5-2.6,0.7-4.1c-0.1-0.1-0.1-0.3-0.1-0.5c0-0.2-0.1-0.5-0.2-0.9c-0.6,0.3-1.3,0.8-2,1.4
				s-1.5,1.3-2.3,2.1c-1.1,1.4-2.2,2.6-3.4,3.6c-1.1,1-2.3,1.7-3.4,2.2c-0.7,1.4-1.7,2.5-2.8,3.2c-1.2,0.7-2.5,1-4,1
				c-1.1,0-1.9-0.3-2.5-0.8s-0.9-1.3-0.9-2.4c0-0.2,0-0.5,0.1-0.8c0-0.3,0.1-0.7,0.2-1.1c-0.1-0.3-0.3-0.8-0.5-1.4
				c0.1-0.6,0.3-1.2,0.4-1.9c0-1-0.1-1.8-0.2-2.3c-0.2-0.5-0.4-0.8-0.7-0.8l-0.2,0.1c-0.4,0.3-0.9,0.7-1.6,1.2s-1.5,1.2-2.4,2
				c-0.2-0.4-0.4-1-0.6-1.6c-0.3-0.6-0.5-1.3-0.8-2.1c-0.1-0.2-0.2-0.4-0.3-0.6C-2705.6,1420.1-2705.7,1420-2705.8,1419.9z"/>
		</g>
		<g>
			<path d="M-2858.1,1511.7c0.4-0.5,0.9-0.8,1.5-0.8s1.1,0.2,1.6,0.6c0.6,0.5,0.8,1.2,0.7,2.2c-0.1,1.4-0.1,2.4,0.1,3.1
				c0.4,1.5,1.6,3,3.5,4.5c1.8,1.5,3.8,2.5,5.9,3c2.8,0.6,4.9,0.1,6.4-1.7c1.2-1.5,1.3-3.3,0.4-5.5c-0.8-1.9-2.2-3.7-4.2-5.5
				c-1.8-1.6-3-3.3-3.7-5.1c-0.9-2.3-0.6-4.3,0.9-6.1c1.7-2,4.4-3,8.2-2.7c3.6,0.3,6.5,1.4,8.9,3.4c1.1,0.9,2.2,2.2,3.3,3.7
				c1.5,2.1,1.9,3.5,1.2,4.2c-0.8,1-1.8,1.1-2.8,0.2c-0.5-0.4-1.2-1.2-2.1-2.4c-0.9-1.2-1.7-2.1-2.4-2.6c-1.8-1.5-3.7-2.3-5.7-2.5
				c-2-0.2-3.6,0.3-4.6,1.6c-0.8,1-0.5,2.3,0.9,4.2c0.5,0.7,1.6,1.8,3.3,3.5c2.5,2.4,3.8,5,4.1,7.7c0.2,2.5-0.4,4.7-2.1,6.6
				c-2.3,2.7-5.4,3.9-9.3,3.4c-3.4-0.4-6.5-1.8-9.4-4.3c-2.1-1.8-3.7-3.8-4.8-6.1C-2859.6,1515.7-2859.5,1513.5-2858.1,1511.7z"/>
			<path d="M-2810.4,1528.2c-0.3-0.1-0.6-0.3-1-0.6c-0.4-0.2-0.7-0.4-1-0.6s-1.3-0.5-2.9-1.1l-5.9,12l-0.4,0.9l-0.5,1
				c-1.5,2.9-3,4-4.4,3.2c-0.5-0.3-0.9-0.7-1.1-1.3c-0.2-0.6-0.2-1.1,0.1-1.6s0.7-1.2,1.3-2.2s1-1.7,1.3-2.2l5.8-11.8
				c-0.9-0.6-2.4-1.4-4.2-2.7c-1.1-0.8-1.3-1.8-0.7-2.9c0.3-0.6,0.7-1,1.3-1.2c0.6-0.2,1.1-0.1,1.7,0.2l4,2.6
				c0.4-0.7,0.8-1.6,1.4-2.8c0.5-1.2,0.9-2,1.2-2.5c0.3-0.6,0.7-0.9,1.3-1.1c0.6-0.2,1.1-0.1,1.7,0.2c1.2,0.6,1.4,2,0.5,4
				c-0.2,0.5-0.5,1.1-0.9,1.8l-0.7,1.1l-0.7,1.2c1.8,0.7,2.8,1.1,3,1.2c1.4,0.7,2.2,1.3,2.6,1.6c0.7,0.7,0.7,1.5,0.2,2.5
				c-0.3,0.6-0.7,1-1.3,1.2C-2809.2,1528.6-2809.8,1528.5-2810.4,1528.2z"/>
			<path d="M-2793.5,1556.2c-0.3-0.1-0.7-0.6-1.2-1.4c-0.5-0.8-0.8-1.5-0.9-2c-1.6,0.3-3,0.5-4.2,0.5s-2.1-0.1-2.8-0.3
				c-3.3-1.1-5.5-2.8-6.4-5.2c-0.9-2.2-0.7-5.2,0.5-8.8c1.1-3.5,3.3-6,6.4-7.7c3.2-1.7,6.4-2,9.7-0.9c1.2,0.4,2.5,1.2,3.9,2.3
				c1.7,1.4,2.3,2.7,2,3.8c-0.1,0.4-0.4,0.7-0.8,0.9c-0.3,0.5-0.7,1.4-1.2,2.6s-1,2.8-1.7,4.7c-0.6,1.8-0.9,3.2-1,4.3
				c-0.1,0.7,0,2.1,0.1,4.2c0,0.3,0.1,0.7,0.1,1.3v0.4c-0.2,0.6-0.5,1-1.1,1.2C-2792.5,1556.3-2793,1556.4-2793.5,1556.2z
				 M-2793.2,1539.8c0.2-0.6,0.5-1.3,0.8-2c0.3-0.7,0.7-1.4,1.1-2.2c-0.4-0.4-0.8-0.8-1.2-1c-0.3-0.3-0.6-0.4-0.8-0.5
				c-2.2-0.7-4.4-0.4-6.6,0.9c-2.2,1.3-3.7,3.1-4.4,5.5c-0.8,2.3-0.9,4.2-0.5,5.7c0.5,1.4,1.5,2.4,3.2,3c1.4,0.4,2.6,0.6,3.7,0.4
				c0.6-0.1,1.5-0.4,2.7-0.9C-2794.5,1544.6-2793.8,1541.7-2793.2,1539.8z"/>
			<path d="M-2766.5,1560.7c-1.3-0.2-1.9-1-1.9-2.4v-5c0-1.8,0.1-3.4,0.3-4.9c0.1-0.4,0.2-1.1,0.4-2.1s0.3-1.7,0.4-2.1
				c0.4-3.2,0-4.9-1.2-5.1c-1.7-0.2-3.4,0.6-5.2,2.4c-1.6,1.6-3,3.8-4.1,6.4c-0.1,0.6-0.3,1.3-0.5,2.2c-0.2,0.7-0.3,1.4-0.4,2.1
				c-0.1,0.4-0.1,1.1-0.1,2c0,0.9-0.1,1.6-0.1,2c-0.1,0.7-0.4,1.2-0.8,1.6c-0.5,0.4-1,0.5-1.7,0.4c-0.7-0.1-1.2-0.4-1.5-0.8
				c-0.3-0.5-0.5-1-0.4-1.7c0.1-0.4,0.1-1.1,0.1-2c0-0.9,0.1-1.6,0.1-2c0.2-1.5,0.6-3.6,1.2-6.3c0.6-2.7,1-4.8,1.2-6.3
				c0.1-0.5,0.1-1.2,0.2-2.1c0.1-0.9,0.1-1.7,0.2-2.1c0.1-0.6,0.4-1.1,0.8-1.5c0.5-0.4,1-0.5,1.7-0.4c1.4,0.2,2,1.2,1.9,3.2
				l-0.3,2.6c2.9-3,5.7-4.3,8.4-4c2.4,0.3,3.9,1.6,4.6,3.8c0.5,1.5,0.5,3.6,0.2,6.3l-0.3,2.3l-0.3,2.1c-0.2,1.2-0.2,2.9-0.1,4.9
				c0.1,2,0,3.6-0.1,4.8c-0.1,0.7-0.4,1.2-0.8,1.5C-2765.3,1560.7-2765.9,1560.8-2766.5,1560.7z"/>
			<path d="M-2735.9,1538.5c0,2.2,0,4.4,0.2,6.6c0.3,5,0.8,8.7,1.5,11.3c0,0.2,0.1,0.4,0.1,0.5c0,0.6-0.1,1.1-0.5,1.5
				s-0.9,0.6-1.4,0.7c-0.9,0.1-1.7-0.6-2.2-1.9c-1,0.9-2.1,1.5-3.2,2c-1.1,0.5-2.3,0.8-3.6,0.9c-3.1,0.2-5.7-0.7-7.9-2.6
				c-2.2-2-3.5-4.6-3.7-7.9c-0.3-4,0.6-7.3,2.5-9.8c2-2.6,4.6-3.9,8-4.2c1.7-0.1,3.1,0.1,4.1,0.5l2.2,1.4
				c-0.2-6.3-0.2-10.6-0.1-12.8c0.1-1.3,0.7-2.1,1.9-2.1c1.4-0.1,2.1,0.6,2.2,2C-2735.8,1526.7-2735.7,1531.3-2735.9,1538.5z
				 M-2745.8,1539.7c-2.5,0.2-4.4,1-5.5,2.6c-1.2,1.6-1.6,3.9-1.4,6.9c0.1,1.9,0.9,3.6,2.4,4.9c1.5,1.3,3.1,1.9,5,1.8
				c1.3-0.1,2.3-0.4,3.1-0.9c0.5-0.3,1.3-1,2.4-2c0.2-0.2,0.4-0.5,0.6-0.7l-0.3-3.9l-0.2-2.6l-0.1-2.7c-0.7-1.2-1.5-2-2.5-2.6
				S-2744.5,1539.6-2745.8,1539.7z"/>
			<path d="M-2699.2,1549.9c-1.3,0.4-3-0.9-5-4c-0.8-1.2-1.9-3.3-3.5-6.3c-1.4,0.7-3.2,1.6-5.4,2.9l-5.4,3c-0.1,2.1-0.5,5.2-1.1,9.4
				c-0.2,0.9-0.7,1.5-1.5,1.8c-0.6,0.2-1.2,0.1-1.7-0.1c-0.6-0.3-1-0.7-1.2-1.3c-0.2-0.7,0.1-3.6,0.8-8.9c-0.4-0.3-0.6-0.7-0.8-1.2
				c-0.4-1.2,0.1-2.1,1.4-2.9c0.7-3.6,1.7-7.7,2.9-12.5c1.7-6.5,3-9.9,3.8-10.1c1.1-0.4,2.2,0.2,3.1,1.6l3.6,6.8l7.8,14l2.3,3
				c0.8,1,1.2,1.7,1.3,2.1c0.2,0.6,0.1,1.2-0.2,1.8C-2698.1,1549.3-2698.6,1549.7-2699.2,1549.9z M-2714.4,1527.6l-3.1,11.8
				c1.6-1,4.1-2.3,7.4-4.1L-2714.4,1527.6z"/>
			<path d="M-2688.4,1529c-0.4,0.2-1.2,0.6-2.5,1.1c1,2,3,5.5,5.8,10.4c0.3,0.5,0.4,1.1,0.3,1.6c-0.1,0.6-0.4,1-1,1.3
				c-0.5,0.3-1.1,0.4-1.6,0.2c-0.5-0.2-1-0.5-1.3-1l-3.3-5.7c-1.1-1.9-2.5-4.7-4.3-8.3c-1.9-3.9-3.3-6.7-4.2-8.3l-1.6-2.7
				c-0.7-1.3-1.2-2.3-1.4-2.9c-0.4-1.3,0-2.2,1.1-2.6c0.3-0.4,0.9-0.8,1.6-1.3c0.7-0.5,1.7-1.1,2.8-1.7c2.4-1.4,5.1-1.9,8.1-1.4
				c3.3,0.5,5.7,2,7.2,4.5c1.9,3.2,2.1,6.5,0.8,9.8C-2683.2,1524.9-2685.3,1527.2-2688.4,1529z M-2696.4,1513
				c-0.6,0.3-1.1,0.6-1.5,0.9c-0.4,0.3-0.8,0.5-1.1,0.8l2,3.6l4.1,8l2.3-1c2.2-1.3,3.7-2.9,4.6-4.9c0.9-2.2,0.8-4.3-0.4-6.3
				c-0.8-1.5-2.4-2.3-4.5-2.4C-2692.9,1511.6-2694.7,1512-2696.4,1513z"/>
			<path d="M-2667.4,1514.7c-0.3,0.3-1.1,0.8-2.3,1.6c1.4,1.8,3.9,4.9,7.6,9.2c0.4,0.5,0.6,1,0.5,1.5c0,0.6-0.3,1-0.7,1.4
				c-0.5,0.4-1,0.6-1.5,0.5c-0.6-0.1-1-0.3-1.4-0.8l-4.3-5c-1.4-1.7-3.4-4.1-5.8-7.3c-2.6-3.5-4.5-6-5.7-7.4l-2-2.4
				c-1-1.1-1.6-2-1.9-2.6c-0.6-1.2-0.4-2.1,0.6-2.7c0.3-0.4,0.7-1,1.3-1.6s1.4-1.4,2.4-2.2c2.1-1.8,4.7-2.8,7.7-2.9
				c3.4-0.2,6,0.9,7.9,3.1c2.4,2.8,3.3,6,2.6,9.5C-2663,1509.7-2664.7,1512.4-2667.4,1514.7z M-2678.2,1500.4
				c-0.5,0.4-0.9,0.8-1.3,1.2c-0.4,0.4-0.7,0.7-0.9,1l2.7,3.2l5.5,7.1l2.1-1.4c1.9-1.6,3.1-3.5,3.6-5.6c0.5-2.3,0-4.3-1.5-6.1
				c-1.1-1.3-2.7-1.8-4.9-1.5C-2675,1498.4-2676.7,1499.1-2678.2,1500.4z"/>
		</g>
	</g>
</g>
<g>
	<path class="st1" d="M-2955.8,1096.8c5.1,11.6,13,23.3,21.8,31.9c9.1,9,20.1,16.3,31.9,21.2c16.7,7,33.5,9.3,51.3,7
		c10.3-1.3,19-3.8,27.7-7.8c25.9-11.8,45.4-33.9,53.6-61c1.7-5.7,3.1-12.3,2.4-12.2c-0.3,0-0.9,1.3-1.4,3.5
		c-2.4,9.4-5.1,16.3-9.3,23.6c-3.5,6.1-6.3,9.9-10.9,15.2c-5.2,5.9-9.5,9.5-16.5,14.2c-10.8,7.2-21.9,11.7-34.2,13.7
		c-30.4,5-61.2-6-81.7-29.1c-1.7-1.9-4.6-5.7-6.9-9.2l-4-5.9l-12-3.7c-6.6-2-12.2-3.7-12.3-3.7
		C-2956.6,1094.7-2956.4,1095.7-2955.8,1096.8z"/>
	<path class="st2" d="M-2810.7,1125.2c11.9-8.5,21.4-20.4,26.7-34c1.7-4.2,3.7-12.5,4.3-17.1c0.6-4.7,0.6-11.6,0.2-15.2
		c-0.2-1.6-0.3-2.9-0.2-3c0.2-0.1,4.9,0.1,13.5,0.5c1.9,0.1,3.3,0.1,3-0.1c-0.3-0.2-9.1-4.5-19.4-9.5l-19-9.3l1,2.5
		c7.8,19.6,5.1,41.6-7.2,59.5c-15.8,22.9-44.5,34-71.3,27.3c-15.1-3.8-28.3-12.7-36.1-24.6c-1.7-2.5-1.9-2.8-1.7-1.8
		c0.4,1.6,5.6,9.7,8.1,12.8c15.8,19.2,40.5,28.5,65.9,24.7c5-0.8,11.6-2.6,16.6-4.6C-2821.6,1131.7-2814.3,1127.8-2810.7,1125.2z"/>
	<path class="st3" d="M-2910.6,1002.7c-11.9,8.5-21.4,20.4-26.7,34c-1.7,4.2-3.7,12.5-4.3,17.1c-0.6,4.7-0.6,11.6-0.2,15.2
		c0.2,1.6,0.3,2.9,0.2,3c-0.2,0.1-4.9-0.1-13.5-0.5c-1.9-0.1-3.3-0.1-3,0.1c0.3,0.2,9.1,4.5,19.4,9.5l19,9.3l-1-2.5
		c-7.8-19.6-5.1-41.6,7.2-59.5c15.8-22.9,44.5-34,71.3-27.3c15.1,3.8,28.3,12.7,36.1,24.6c1.7,2.5,1.9,2.8,1.7,1.8
		c-0.4-1.6-5.6-9.7-8.1-12.8c-15.8-19.2-40.5-28.5-65.9-24.7c-5,0.8-11.6,2.6-16.6,4.6C-2899.7,996.2-2907,1000.1-2910.6,1002.7z"/>
	<path class="st4" d="M-2765.5,1029.7c-5.1-11.6-13.1-23.4-21.8-32.1c-9.1-9-20.1-16.4-31.8-21.4c-16.7-7.1-33.4-9.4-51.1-7.2
		c-10.2,1.3-18.9,3.7-27.6,7.6c-25.7,11.7-45,33.6-53.1,60.7c-1.7,5.7-3,12.3-2.4,12.2c0.3,0,0.8-1.3,1.3-3.5
		c2.4-9.4,5-16.3,9.2-23.6c3.5-6.1,6.1-9.9,10.8-15.1c5.2-5.8,9.4-9.5,16.3-14.1c10.7-7.2,21.8-11.6,34-13.5
		c30.2-4.9,61,6.3,81.6,29.6c1.7,1.9,4.6,5.7,7,9.2l4,5.9l12,3.7c6.6,2,12.1,3.7,12.3,3.7C-2764.7,1031.8-2765,1030.8-2765.5,1029.7
		z"/>
</g>
<g class="st5">
	<path d="M-2704.1,1052c0.7,1.5,1.2,2.9,1.7,4.2c-0.6,0.6-1.4,1.2-2.4,1.7s-2.2,1-3.5,1.3c-0.4,0.1-0.8,0.2-1.3,0.4
		c-0.5,0.2-1.1,0.3-1.7,0.5c-0.9,0.1-1.9,0.2-3.2,0.3c-1.2,0.1-2.7,0.3-4.3,0.5c-2.4,1.9-4.5,3.3-6.3,4.4c-1.8,1.1-3.4,1.7-4.6,2.1
		l-0.7,0.6c-1,0.5-2.3,0.8-3.8,1.1c-1.5,0.3-3.2,0.5-5.2,0.8c-0.4-0.1-0.7-0.3-1.1-0.7c-0.4-0.4-0.8-0.8-1.3-1.5
		c0.3-0.3,0.7-0.8,1.1-1.3c0.5-0.5,1-1.2,1.5-1.9c0.5-0.7,1-1.2,1.6-1.6s1.4-0.7,2.4-0.9c1-0.2,2.1-0.5,3.3-0.9
		c0.3-0.2,0.7-0.5,1.1-0.8c0.4-0.3,0.9-0.6,1.5-0.9c0.7-0.3,1.4-0.8,2.2-1.4s1.6-1.4,2.5-2.2c1.2-1.2,2.2-2.1,2.9-2.8
		c0.7-0.7,1.2-1.2,1.3-1.3c0.2-0.4,0.5-0.8,0.8-1.2c0.3-0.3,0.6-0.7,1-1c0.4-0.7,1-1.6,1.6-2.8c0.6-1.1,1.4-2.4,2.3-3.8
		c0.2-0.2,0.3-0.4,0.6-0.7c0.2-0.3,0.5-0.6,0.8-0.9c0.6-0.7,1-1.8,1.3-3.2s0.4-3.2,0.4-5.2c0-1.4-0.4-2.9-1.1-4.4
		c-0.7-1.5-1.8-3.1-3.3-4.8c-1.2-1.4-2.6-2.6-4-3.8c-1.4-1.1-2.8-2-4.2-2.7c-1.1-0.5-2.1-1.1-3.1-1.6s-1.8-1-2.6-1.4
		c-0.4,1.5-1,3.6-1.6,6.3c-0.7,2.7-1.4,5.9-2.2,9.7c-0.9,4.3-1.6,7.8-2,10.4c-0.5,2.6-0.7,4.4-0.7,5.3c-0.2,0.8-0.3,1.5-0.5,2.3
		l-1.8,9c-1.1,2.1-2,3.6-2.7,4.6c-0.8,1-1.4,1.5-1.8,1.5c-0.2,0-0.4-0.2-0.6-0.5c-0.2-0.4-0.4-0.9-0.6-1.7l0.6-2.6
		c-0.1-0.2-0.2-0.4-0.3-0.8c0.2-2,0.4-4,0.5-6s0.3-4,0.5-6c0.2-2.2,0.4-4.4,0.7-6.3c0.3-2,0.6-3.8,1-5.5l-0.5-2.3
		c0.2-0.6,0.4-1.3,0.6-2.1c0.2-0.8,0.3-1.8,0.4-2.9c0.1-1.4,0.2-2.5,0.3-3.4c0.1-0.9,0.2-1.5,0.3-1.8c0.1-0.4,0.3-0.9,0.4-1.5
		c0.1-0.6,0.3-1.3,0.5-2.2c0.1-0.3,0.6-1,1.6-1.9c1-1,1.6-1.7,1.9-2.2c0.6-0.1,1.1-0.2,1.4-0.4c0.3-0.2,0.5-0.4,0.5-0.7
		c0-0.2-0.2-0.4-0.5-0.5c-0.3-0.2-0.9-0.3-1.6-0.4c-0.3,0-0.7,0-1.2-0.1c-0.4-0.1-0.9-0.2-1.3-0.4l-3.7-1.8
		c-0.8-0.4-1.4-0.7-1.8-1.1c-0.4-0.4-0.6-0.7-0.6-1.1c0.2-0.6,0.3-1.2,0.5-1.8c-0.2-0.6-0.4-1.1-0.5-1.5s-0.2-0.7-0.2-0.9
		c0-0.3,0.1-0.5,0.2-0.6s0.3-0.2,0.6-0.2c0.8,0.2,1.6,0.3,2.2,0.4c0.3-0.1,0.6-0.2,0.9-0.3c0.3-0.1,0.6-0.2,0.9-0.3
		c0.7,0,1.4,0.1,2,0.2s1,0.2,1.3,0.3c0.4,0.2,0.9,0.4,1.3,0.7c0.5,0.2,0.9,0.5,1.3,0.6c0.4-0.1,0.8-0.1,1.5-0.2c0.2,0,0.3,0,0.5,0.1
		c0.4,0.2,0.8,0.5,1.3,0.7s1.1,0.4,1.8,0.5s1.4,0.3,1.9,0.4s0.9,0.3,1.2,0.4c3.2,1.7,6,3.2,8.4,4.7s4.4,2.9,6,4.3
		c2.5,2.2,4.3,4.5,5.5,6.9c1.2,2.5,1.8,5,1.8,7.7c0,4.3-1.3,8.8-3.8,13.5c-2.5,4.8-6.3,9.8-11.2,15c0.4-0.2,1-0.4,1.7-0.6
		c0.7-0.2,1.5-0.5,2.4-0.8c1.9-0.4,3.9-0.9,5.9-1.4c1.3-0.4,2.4-0.8,3.2-1.2C-2705.4,1053.1-2704.7,1052.6-2704.1,1052z"/>
	<path d="M-2703,1050.1l4.1-2.7c0.2-0.2,0.3-0.4,0.5-0.6c0.2-0.3,0.5-0.6,0.7-1.1c0.2-0.4,0.5-0.7,0.8-1c0.3-0.3,0.8-0.5,1.2-0.7
		c0.2-0.3,0.6-0.7,1-1.1c0.5-0.5,1-1,1.7-1.6c0.3-0.2,0.8-0.4,1.3-0.8c0.5-0.3,1.1-0.8,1.7-1.4c2.8-2.6,5.2-4.6,7.3-5.9
		c2.1-1.3,3.8-2,5.3-2c0.8,0,1.4,0.2,1.8,0.5c0.4,0.3,0.6,0.8,0.6,1.4s-0.1,1.2-0.3,1.7s-0.6,0.9-1.1,1.2c-0.8,0.5-1.6,1.2-2.5,1.8
		c-0.5,0.6-1.1,1.3-1.8,2c-0.7,0.7-1.5,1.4-2.5,2.1c-0.3,0.4-0.6,0.7-0.8,1c-0.2,0.2-0.4,0.4-0.9,0.8c-0.4,0.4-1,0.9-1.7,1.4
		c-0.3,0.7-1,1.5-2,2.6s-2.4,2.3-4.1,3.8c-0.2,0.2-0.6,0.7-1.1,1.5c-0.5,0.8-1.3,1.8-2.1,3l0.3,0.4c0.7-0.2,1.4-0.6,2.1-1.1
		c0.7-0.5,1.5-1.2,2.4-2c1-0.9,1.9-1.7,2.5-2.3c0.7-0.6,1.1-1,1.4-1.2c0.2-0.1,0.4-0.2,0.6-0.4c0.2-0.1,0.5-0.3,0.7-0.5
		c1.4-1.7,2.7-2.9,3.9-3.7c1.2-0.8,2.3-1.2,3.4-1.2c0.6,0,1.1,0.3,1.5,0.8c0.3,0.5,0.5,1.3,0.6,2.3c-0.1,1.5-0.1,3-0.1,4.4
		c0,1,0.2,1.8,0.8,2.6c0.6,0.8,1.3,1.2,2.2,1.2c0.3,0,0.5-0.1,0.8-0.2c0.3-0.2,0.5-0.3,0.8-0.6c0.2-0.3,0.4-0.5,0.6-0.8
		c0.2-0.2,0.4-0.5,0.6-0.7c0.1-0.1,0.3-0.2,0.5-0.3c0.2-0.2,0.4-0.3,0.7-0.5c0.4,0.9,0.8,1.7,1.1,2.4c0.3,0.7,0.5,1.3,0.7,1.8
		c-0.7,0.6-1.4,1.3-2.1,2c-0.7,0.7-1.4,1.3-2.2,1.9c-0.9,0.7-1.8,1.2-2.6,1.6c-0.8,0.3-1.7,0.5-2.6,0.5c-2,0-3.5-0.6-4.6-1.7
		c-1.1-1.1-1.7-2.8-1.9-5.1c0-0.3,0-0.6-0.1-0.8c-0.1-0.3-0.2-0.6-0.5-0.9c-0.2,0.2-0.3,0.3-0.5,0.5c-0.2,0.2-0.4,0.4-0.6,0.7
		c-0.4,0.3-0.9,0.7-1.5,1.1c-0.6,0.5-1.3,1-2.1,1.6c-1.1,1.1-2,2-2.7,2.7c-0.7,0.7-1.2,1.2-1.5,1.5c-0.6,0.5-1.3,1-2.1,1.5
		s-1.7,1-2.7,1.6c-0.6,0.3-1.2,0.6-1.6,0.8c-0.5,0.2-0.8,0.3-1,0.3c-1.5,0-2.5-0.4-3.2-1.1c-0.7-0.7-1-1.8-1-3.3
		c0-0.8,0.2-1.6,0.5-2.3c0.3-0.7,0.9-1.5,1.6-2.2c0.1-0.4,0.1-0.7,0.1-1c0-0.2,0-0.3-0.1-0.5c-0.1-0.2-0.2-0.4-0.3-0.6
		c-0.2-0.4-0.4-0.9-0.6-1.4c-0.2-0.5-0.5-1.1-0.8-1.7c0.1-0.1,0.3-0.4,0.5-0.7C-2703.5,1051-2703.3,1050.6-2703,1050.1z"/>
	<path d="M-2669.4,1052.1l0.3-0.3l0.1-0.5c0.8-1.1,2.3-2.6,4.3-4.4c2.1-1.8,3.5-3.3,4.3-4.4c0.3-0.5,0.7-0.8,1-1
		c0.4-0.2,0.8-0.3,1.2-0.3c1.1,0,2,0.3,2.7,0.8s1.2,1.3,1.5,2.4c0.2,0.9,0.4,1.9,0.6,2.8c0.2,1,0.3,1.9,0.5,2.9
		c0.2,0.6,0.5,1.5,0.8,2.8c0.3,1.2,0.5,1.9,0.7,2.1c0.2,0.3,0.4,0.5,0.7,0.7c0.3,0.1,0.7,0.2,1.1,0.2c0.5,0,1.1-0.1,1.7-0.3
		c0.6-0.2,1.2-0.5,1.8-1c0.5-0.4,0.9-0.8,1.4-1.2s1-0.8,1.5-1.2l1.8,4.2c-0.5,0.5-1.1,1-1.9,1.7c-0.8,0.6-1.8,1.3-2.9,2.2
		c-1.2,0.9-2.3,1.6-3.2,2s-1.5,0.7-2,0.7c-2.8,0-4.6-0.3-5.4-1c-0.8-0.6-1.7-2.4-2.7-5.3c-0.1-0.2-0.3-0.5-0.5-0.9
		c-0.2-0.3-0.5-0.7-0.8-1.2c-0.4-0.7-0.7-1.2-1-1.6c-0.3-0.3-0.5-0.5-0.7-0.5c-0.5,0-1.1,0.3-2,1c-0.8,0.7-1.8,1.6-3,2.9
		c-0.2-0.4-0.3-0.9-0.6-1.4c-0.2-0.5-0.5-1.2-0.7-1.9c-0.1-0.2-0.1-0.3-0.2-0.5C-2669.2,1052.3-2669.3,1052.2-2669.4,1052.1z
		 M-2650.4,1016.2c0.8,0,1.3,0.2,1.7,0.5c0.3,0.3,0.5,0.7,0.5,1.3c-0.2,0.8-0.3,1.6-0.5,2.1c-0.3,1.1-0.6,2-0.8,2.7
		s-0.4,1.2-0.5,1.5c-0.3,0.7-0.6,1.3-1.1,1.8s-1,0.9-1.7,1.3c-0.7,0.5-1.3,0.8-1.8,1s-0.8,0.3-1,0.3c-0.5-0.1-1-0.1-1.5-0.2
		c-0.5,0-0.9-0.1-1.4-0.1c-0.4-0.2-0.7-0.6-0.9-1.2s-0.3-1.4-0.3-2.5c0-0.9,0.6-2.1,1.7-3.4s2.1-2.1,2.9-2.2
		c0.5-0.6,1.1-1.4,1.8-2.2c0.3-0.2,0.7-0.4,1.2-0.5C-2651.6,1016.2-2651,1016.2-2650.4,1016.2z"/>
	<path d="M-2643.3,1052.1c0.3-0.3,0.5-0.7,0.8-1.1c0.3-0.4,0.6-0.9,1.1-1.4l3-2.6c0.1-0.1,0.2-0.2,0.2-0.4c0-0.2,0-0.4,0-0.6
		c0-0.4-0.1-0.7-0.1-1c0-0.7,0.1-1.9,0.4-3.5c0.3-1.6,0.5-2.6,0.7-3l-0.3-0.9c0.4-2,0.9-4.3,1.7-6.7c0.7-2.4,1.5-5,2.4-7.9
		c0.3-0.5,0.6-1.1,1-1.8c0.3-0.7,0.7-1.6,1.1-2.5c0.5-1.6,1.2-3.2,2-5c0.8-1.7,1.8-3.5,2.9-5.3c1.4-2.4,2.7-4.2,3.8-5.4
		c1.1-1.2,2.1-1.8,3-1.8c1.8,0,3,0.3,3.6,1c0.7,0.7,1,2,1,3.8c0,0.5-0.1,1.2-0.3,2.3c-0.2,1-0.3,1.8-0.3,2.3s-0.2,1.2-0.5,2.2
		c-0.3,0.9-0.5,1.8-0.5,2.6c0,0.2-0.1,0.5-0.2,0.7v0.6c-0.1,0.4-0.3,0.9-0.5,1.5s-0.6,1.3-1,2.2c-0.2,0.8-0.5,1.6-0.8,2.6
		s-0.7,2.1-1.2,3.3c-0.2,0.3-0.4,0.7-0.7,1.1s-0.6,0.9-0.9,1.5c-0.1,0.4-0.2,0.9-0.5,1.4c-0.2,0.5-0.5,1.1-0.9,1.8
		c-0.2,0.4-0.4,0.8-0.7,1.2c-0.3,0.4-0.7,1-1.1,1.6c-0.2,0.3-0.4,0.7-0.6,1.1c-0.2,0.5-0.5,1-0.7,1.5c-0.3,0.5-0.8,1.2-1.3,1.9
		c-0.5,0.8-1.2,1.7-1.9,2.7c-0.9,1.7-1.9,3.3-2.9,4.8c0,2.9,0.6,5.2,1.8,6.7s2.9,2.3,5.3,2.3c0.2,0,0.6-0.1,1.4-0.3
		c0.8-0.2,1.8-0.5,3.1-1c0.4-0.2,0.9-0.6,1.4-1s1.2-1,1.9-1.6l1.8,4.2c-0.8,0.7-1.6,1.4-2.4,2.1c-0.8,0.7-1.6,1.4-2.4,2.1
		c-0.9,0.8-1.9,1.4-2.9,1.8c-1,0.4-1.9,0.6-2.9,0.6c-0.5,0-1.2-0.1-2.2-0.2s-1.8-0.2-2.3-0.2c-1.7,0-3.1-0.7-4.2-2
		c-1.1-1.4-1.9-3.4-2.3-6.1c-0.1-0.3-0.1-0.5-0.3-0.7c-0.1-0.2-0.3-0.5-0.6-0.7c-0.4,0.4-0.9,0.9-1.4,1.4s-1.2,1.2-1.9,1.9
		L-2643.3,1052.1z M-2621.6,1016.3l-0.3-0.2c-1.7,1.6-3,3.2-3.8,4.6c-0.9,1.5-1.3,2.9-1.3,4.2c0,0.2-0.1,0.6-0.3,1.1
		s-0.5,1.1-0.9,1.9c-0.5,0.9-1,2-1.5,3.1c-0.6,1.7-1,3.1-1.3,4.1c-0.3,1.1-0.5,1.8-0.5,2.3l0.3,0.4c0.3,0,0.6-0.3,1-0.8
		s0.8-1.3,1.4-2.3c0.2-0.5,0.6-1.2,1-1.9c0.5-0.7,1-1.6,1.6-2.6c0.5-0.7,1.3-2.4,2.3-5.1c1.1-2.8,1.6-4.5,1.7-5.3
		c0-0.6,0.1-1.2,0.3-1.8C-2621.9,1017.5-2621.7,1016.9-2621.6,1016.3z"/>
	<path d="M-2617.7,1052.1c0.7-0.7,1.8-1.6,3.2-2.6s2.5-1.9,3.2-2.6c0.5-0.5,1.1-1.2,1.8-2c0.7-0.8,1.6-1.7,2.6-2.8
		c0.6-0.5,1.2-1,1.8-1.3c0.6-0.3,1.2-0.5,1.7-0.5c0.7,0,1.3,0.2,1.7,0.5c0.4,0.4,0.6,0.9,0.6,1.7c0,1.2-0.5,3.1-1.4,5.7
		c-0.9,2.6-1.4,4.6-1.4,6c0,0.3,0.1,0.5,0.2,0.6c0.1,0.1,0.3,0.2,0.5,0.2h0.2c0.6-0.4,1.3-0.8,2-1.4c0.8-0.6,1.6-1.3,2.6-2.1
		c0.8-0.7,1.8-1.7,2.9-2.9c1.2-1.2,2.5-2.6,4.1-4.1c0.6-0.5,1.3-1.1,2.1-1.9c0.8-0.8,1.6-1.7,2.6-2.7c0.4-0.5,0.9-1,1.7-1.3
		c0.7-0.3,1.6-0.5,2.6-0.5c0.7,0,1.2,0.1,1.6,0.4c0.3,0.3,0.5,0.6,0.5,1.2c0,0.2,0,0.4-0.1,0.6c0,0.2-0.1,0.4-0.1,0.6
		c-0.2,0.9-0.5,2-1,3.3c-0.4,1.3-0.9,2.9-1.5,4.7c-0.5,1.1-1.1,2.5-1.6,4c-0.6,1.6-1.2,3.3-1.8,5.2l0.3,0.4c0.6-0.3,1.6-1,2.8-2.2
		c1.3-1.1,2.8-2.7,4.7-4.6l1.8,4.2c-0.2,0.2-0.5,0.5-0.9,0.9c-0.3,0.3-0.8,0.7-1.4,1.1c-3.2,2.3-6,4.6-8.4,6.9
		c-2.3,2.3-4.2,4.5-5.5,6.7c-2,3.3-3.7,6.1-5.1,8.2c-1.3,2.1-2.3,3.6-2.9,4.4c-2.1,2.8-4.1,4.8-6,6.1c-1.9,1.3-3.7,2-5.5,2
		c-0.7,0-1.2-0.1-1.5-0.4s-0.5-0.7-0.5-1.3c0-0.3,0.1-0.7,0.2-1.1c0.2-0.5,0.4-0.9,0.8-1.5c0.6-0.8,1.1-1.7,1.6-2.5l1.4-1.2
		c0.1-0.4,0.2-0.7,0.2-0.8c0.1-0.2,0.3-0.3,0.5-0.5c0.2-0.2,0.5-0.5,0.8-0.7c0.2-0.5,0.8-1.5,1.7-2.7c0.9-1.3,2.2-2.9,3.9-4.8
		c1.2-1.5,2.4-2.8,3.4-3.9s1.9-2.1,2.6-2.9c0.1-0.2,0.3-0.5,0.4-0.9c0.1-0.3,0.3-0.7,0.3-1c0.4-0.8,0.8-1.7,1.3-2.9
		c0.5-1.1,1-2.4,1.7-4c0.3-0.9,0.6-1.9,0.8-3s0.4-2.4,0.6-3.7c-0.1-0.1-0.1-0.3-0.1-0.5c0-0.2-0.1-0.5-0.2-0.8
		c-0.5,0.3-1.1,0.7-1.8,1.2s-1.4,1.2-2.1,1.9c-1,1.3-2,2.4-3.1,3.3c-1,0.9-2,1.5-3.1,2c-0.7,1.3-1.5,2.3-2.6,2.9
		c-1,0.6-2.3,0.9-3.6,0.9c-1,0-1.8-0.2-2.3-0.7s-0.8-1.2-0.8-2.2c0-0.2,0-0.4,0.1-0.7c0-0.3,0.1-0.6,0.2-1c-0.1-0.3-0.3-0.7-0.5-1.3
		c0.1-0.5,0.2-1.1,0.3-1.7c0-0.9-0.1-1.6-0.2-2c-0.1-0.5-0.4-0.7-0.7-0.7l-0.2,0.1c-0.3,0.2-0.8,0.6-1.4,1.1s-1.3,1.1-2.2,1.8
		c-0.2-0.4-0.3-0.9-0.6-1.4c-0.2-0.5-0.5-1.2-0.7-1.9c-0.1-0.2-0.1-0.3-0.2-0.5C-2617.4,1052.3-2617.5,1052.2-2617.7,1052.1z"/>
</g>
<rect x="-2758.9" y="1076.6" class="st0" width="173.9" height="52.5"/>
<text transform="matrix(1 0 0 1 -2758.9043 1113.9363)" style="font-family:'ComicSansMS'; font-size:48px;">Stand</text>
<rect x="-2629.4" y="1104.2" class="st0" width="116.1" height="52.5"/>
<text transform="matrix(1 0 0 1 -2629.4121 1132.173)" style="font-family:'ComicSansMS'; font-size:36px;">APP</text>
<g>
	<path class="st1" d="M-2808.2,1043.7c-2.9-6.6-7.3-13.1-12.3-18c-5.1-5-11.3-9.2-17.9-11.9c-9.4-3.9-18.9-5.2-28.9-3.9
		c-5.8,0.8-10.7,2.2-15.6,4.4c-14.6,6.7-25.6,19.1-30.2,34.3c-1,3.2-1.7,6.9-1.4,6.9c0.2,0,0.5-0.7,0.8-2c1.4-5.3,2.9-9.2,5.3-13.3
		c2-3.5,3.5-5.6,6.1-8.5c2.9-3.3,5.4-5.4,9.3-8c6.1-4.1,12.4-6.6,19.3-7.7c17.1-2.8,34.5,3.4,46,16.4c0.9,1.1,2.6,3.2,3.9,5.2
		l2.3,3.3l6.7,2.1c3.7,1.1,6.9,2.1,7,2.1C-2807.8,1044.8-2807.9,1044.3-2808.2,1043.7z"/>
	<path class="st2" d="M-2890,1027.7c-6.7,4.8-12,11.5-15.1,19.1c-0.9,2.3-2.1,7-2.4,9.7c-0.3,2.7-0.4,6.5-0.1,8.6
		c0.1,0.9,0.2,1.6,0.1,1.7c-0.1,0.1-2.7,0-7.6-0.3c-1.1,0-1.9,0-1.7,0.1s5.1,2.5,10.9,5.4l10.7,5.2l-0.5-1.4
		c-4.4-11-2.9-23.4,4-33.5c8.9-12.9,25.1-19.1,40.1-15.4c8.5,2.1,15.9,7.2,20.3,13.9c0.9,1.4,1.1,1.6,0.9,1
		c-0.2-0.9-3.1-5.5-4.6-7.2c-8.9-10.8-22.8-16.1-37.1-13.9c-2.8,0.4-6.6,1.5-9.4,2.6C-2883.8,1024-2887.9,1026.2-2890,1027.7z"/>
	<path class="st3" d="M-2833.7,1096.7c6.7-4.8,12-11.5,15.1-19.1c0.9-2.3,2.1-7,2.4-9.7c0.3-2.7,0.4-6.5,0.1-8.6
		c-0.1-0.9-0.2-1.6-0.1-1.7c0.1-0.1,2.7,0,7.6,0.3c1.1,0,1.9,0,1.7-0.1s-5.1-2.5-10.9-5.4l-10.7-5.2l0.5,1.4c4.4,11,2.9,23.4-4,33.5
		c-8.9,12.9-25.1,19.1-40.1,15.4c-8.5-2.1-15.9-7.2-20.3-13.9c-0.9-1.4-1.1-1.6-0.9-1c0.2,0.9,3.1,5.5,4.6,7.2
		c8.9,10.8,22.8,16.1,37.1,13.9c2.8-0.4,6.6-1.5,9.4-2.6C-2839.8,1100.3-2835.7,1098.1-2833.7,1096.7z"/>
	<path class="st4" d="M-2915.4,1081.5c2.9,6.6,7.4,13.2,12.3,18.1c5.1,5.1,11.3,9.3,17.9,12c9.4,4,18.8,5.3,28.8,4.1
		c5.8-0.7,10.6-2.1,15.5-4.3c14.5-6.6,25.3-18.9,29.9-34.2c1-3.2,1.7-6.9,1.3-6.9c-0.2,0-0.5,0.7-0.8,2c-1.3,5.3-2.8,9.2-5.2,13.3
		c-1.9,3.5-3.5,5.6-6.1,8.5c-2.9,3.3-5.3,5.3-9.2,8c-6,4-12.3,6.5-19.1,7.6c-17,2.7-34.3-3.6-45.9-16.7c-0.9-1.1-2.6-3.2-3.9-5.2
		l-2.3-3.3l-6.7-2.1c-3.7-1.2-6.8-2.1-6.9-2.1C-2915.9,1080.3-2915.7,1080.8-2915.4,1081.5z"/>
</g>
<rect x="-2718.2" y="1263.6" class="st0" width="367.9" height="66.3"/>
<polyline class="st0" points="-2441.9,1393.8 -2583.4,1401 -2583.4,1268.5 "/>
<g>
	<g>
		<path class="st1" d="M28.1,328.9c11.8,27.2,30.4,54.3,50.8,74.4c21.1,20.9,46.9,38.1,74.3,49.4c38.9,16.2,78.2,21.6,119.6,16.2
			c24-3.1,44.2-8.9,64.7-18.1c60.5-27.5,105.9-79.1,125.1-142.2c4-13.2,7.2-28.7,5.7-28.5c-0.7,0-2,3-3.2,8.2
			c-5.7,22-11.9,38.1-21.8,55.1c-8.2,14.3-14.6,23.1-25.4,35.3c-12.1,13.7-22.2,22.2-38.5,33.2c-25.2,16.8-51.2,27.3-79.7,32.1
			c-70.9,11.7-142.7-13.9-190.6-67.9c-3.9-4.6-10.7-13.3-16.1-21.4l-9.4-13.7l-27.9-8.5c-15.5-4.7-28.4-8.5-28.8-8.5
			C26.3,323.9,26.8,326.2,28.1,328.9z"/>
		<path class="st2" d="M366.6,395.2c27.8-19.7,49.8-47.5,62.4-79.2c3.9-9.7,8.7-29.2,10.1-40c1.3-11.1,1.6-27,0.4-35.5
			c-0.5-3.6-0.6-6.6-0.4-7c0.5-0.2,11.3,0.1,31.6,1.1c4.6,0.1,7.8,0.1,7.1-0.2c-0.6-0.4-21.1-10.5-45.3-22.2l-44.2-21.6l2.3,5.9
			c18.3,45.7,11.9,97.1-16.7,138.8c-36.9,53.5-103.8,79.2-166.2,63.7c-35.2-8.8-65.9-29.7-84.3-57.5c-3.9-5.9-4.6-6.5-3.9-4.2
			c1,3.6,13,22.6,18.9,29.9c36.9,44.8,94.6,66.5,153.7,57.7c11.7-1.8,27.2-6,38.7-10.7C341.1,410.2,358.1,401.2,366.6,395.2z"/>
		<path class="st3" d="M133.4,109.4c-27.8,19.7-49.8,47.5-62.4,79.2c-3.9,9.7-8.7,29.2-10.1,40c-1.3,11.1-1.6,27-0.4,35.5
			c0.5,3.6,0.6,6.6,0.4,7c-0.5,0.2-11.3-0.1-31.6-1.1c-4.6-0.1-7.8-0.1-7.1,0.2c0.6,0.4,21.1,10.5,45.3,22.2l44.2,21.6l-2.3-5.9
			c-18.3-45.7-11.9-97.1,16.7-138.8c36.9-53.5,103.8-79.2,166.2-63.7c35.2,8.8,65.9,29.7,84.3,57.5c3.9,5.9,4.6,6.5,3.9,4.2
			c-1-3.6-13-22.6-18.9-29.9C325,92.3,267.2,70.6,208.1,79.5c-11.7,1.8-27.2,6-38.7,10.7C158.9,94.2,141.8,103.4,133.4,109.4z"/>
		<path class="st4" d="M471.9,172.4c-11.9-27.2-30.5-54.6-51-74.8c-21.1-21-46.9-38.3-74.2-49.8c-38.8-16.5-78-22-119.2-16.8
			c-23.9,3-44,8.7-64.3,17.8c-60,27.3-104.8,78.5-123.8,141.6c-4,13.2-7,28.7-5.5,28.5c0.7,0,1.9-3,3.1-8.2
			c5.5-22,11.7-38,21.4-54.9c8.1-14.3,14.3-23.1,25.1-35.2c12-13.6,22-22.1,38.1-32.9c25-16.7,50.8-27,79.2-31.6
			c70.6-11.3,142.2,14.7,190.3,69c3.9,4.6,10.7,13.3,16.2,21.5l9.4,13.8l27.9,8.5c15.5,4.8,28.3,8.7,28.7,8.7
			C473.8,177.3,473.2,175,471.9,172.4z"/>
	</g>
	<g class="st5">
		<path d="M147.2,213.4c-0.7-0.1-1.3-0.5-1.9-1.2s-1.2-1.5-1.6-2.4c-0.6-1-1.1-2.1-1.6-3.4c-0.6-1.6-0.9-3-1-4.2
			c-0.1-1.2-0.1-2.2,0.2-3.1c0.2-0.9,0.6-1.7,1.2-2.4c0.6-0.7,1.3-1.5,2.1-2.2c1-0.9,2.8-2,5.4-3.4c2.6-1.4,5.6-2.6,9-3.5v-1.2
			c0-0.4,0-0.8,0.1-1.1c0-0.3,0.1-0.6,0.1-1l9.6-3.2c0.6-0.2,1.3-0.3,2.1-0.1c0.7,0.2,1,1,0.9,2.3c0,0.4,0,0.8-0.1,1.2
			c0,0.4-0.1,0.9-0.2,1.3c5.2,0.2,9.9,1.2,14.2,3.2c4.3,1.9,7.9,4.6,10.9,8c3,3.4,5.4,7.4,7.1,12c1.7,4.6,2.6,9.7,2.6,15.1
			c0,8-1.1,15-3.4,20.9c-2.3,5.9-5.2,10.9-8.9,15.1c-3.6,4.1-7.8,7.5-12.4,10c-4.6,2.5-9.2,4.3-13.9,5.5c-0.6,0.6-1.3,1.1-2.3,1.7
			c-1,0.6-2,1.1-3.2,1.5c-1.1,0.4-2.3,0.7-3.5,0.9c-1.2,0.2-2.2,0.2-3.1,0.1c0-0.2,0-0.4,0.1-0.7c0-0.3,0.1-0.6,0.1-0.9
			c0-0.3,0-0.7,0.1-1c-3.2,0.2-5.9,0-8.3-0.5c-0.6-0.3-1.1-0.9-1.6-1.8c-0.2-0.3-0.4-0.7-0.6-1.2c-0.2-0.4-0.4-0.8-0.5-1.2
			c-0.2-0.7-0.2-1.6,0-2.7c4,0.5,7.8,0.5,11.4,0c0.2-3.5,0.5-7.7,0.7-12.7c0.2-5,0.5-10.4,0.7-16.2c0.2-3.4,0.3-7,0.4-10.9
			c0.1-3.9,0.2-7.7,0.3-11.6c0.1-3.9,0.2-7.6,0.2-11.3c0.1-3.6,0.1-7,0.1-10.1c-3.9,1.5-6.9,3.8-9.1,6.6
			C147.5,206.4,146.7,209.7,147.2,213.4z M169,214.1c-0.3,5.4-0.6,10.7-0.7,15.9c-0.2,5.2-0.3,10.1-0.3,14.7c0,4.6,0,8.8,0.1,12.6
			c0.1,3.8,0.2,7,0.2,9.5c7.8-2.9,14-7.8,18.7-14.7c4.7-6.9,7-15.5,7-25.9c0-4.5-0.5-8.7-1.6-12.5c-1.1-3.8-2.7-7-4.7-9.7
			c-2-2.7-4.5-4.8-7.3-6.4c-2.8-1.5-6-2.4-9.4-2.6h-0.5c-0.2,2.4-0.5,5.2-0.7,8.3C169.5,206.6,169.2,210.2,169,214.1z"/>
		<path d="M248.2,261.2c0.2,0.6,0.4,1.1,0.7,1.6c0.2,0.4,0.6,0.8,1,1.2c0.4,0.4,1,0.6,1.6,0.7c-0.6,1.1-1.1,1.9-1.7,2.3
			c-0.3,0.2-0.6,0.4-0.9,0.5c-0.7,0.2-1.8,0.4-3.3,0.4c-1.5,0-2.9-0.4-4.3-1.3c-0.5-0.4-0.9-1-1.3-1.8c-0.4-0.6-0.8-1.6-1-2.7
			c-0.3-1.2-0.5-2.7-0.7-4.6c-1.1,2.4-2.4,4.4-3.8,5.8c-1.4,1.4-2.8,2.5-4.2,3.1c-1.5,0.9-3.1,1.4-4.7,1.6c-2,0.2-4-0.2-5.8-1
			c-1.8-0.9-3.4-2.1-4.6-3.9c-1.3-1.7-2.2-3.9-2.9-6.4c-0.6-2.5-0.9-5.4-0.6-8.5c0.2-3.3,0.9-6.3,1.9-8.9c1.1-2.6,2.3-4.9,3.8-6.9
			c1.5-2,3-3.8,4.6-5.2c1.6-1.4,3.2-2.6,4.7-3.5c1.5-0.9,2.8-1.6,3.9-2.1c1.1-0.4,1.8-0.7,2.1-0.8c0.9-0.2,1.7-0.3,2.3-0.2
			c0.6,0.1,1.2,0.4,1.7,1.1c0.2,0.2,0.4,0.5,0.6,0.9c0.2,0.3,0.4,0.8,0.6,1.3c0.2,0.5,0.4,1.1,0.6,1.8c-1.9,0.9-3.8,1.9-5.5,3
			s-3.3,2.4-4.7,4c-1.4,1.5-2.7,3.4-3.7,5.6c-1.1,2.2-1.9,4.9-2.4,8c-0.8,4-0.6,7.2,0.7,9.6c1.3,2.4,3,3.4,5.2,3
			c1.3-0.4,2.6-1.2,3.8-2.3c1.1-1,2.2-2.4,3.3-4.4c1.2-1.9,2.3-4.6,3.3-8c0.4-4.9,0.7-8.7,1-11.5c0.3-2.8,0.5-4.9,0.8-6.4
			c0.3-1.7,0.6-2.8,0.7-3.4c0.2-0.4,0.7-0.8,1.5-1.2c0.7-0.4,1.5-0.7,2.4-0.9c0.9-0.2,1.7-0.4,2.4-0.4c0.7,0,1.2,0,1.5,0.1
			c0.2,0.1,0.2,1.1,0.2,3c0,1.9-0.1,4.3-0.2,7.2c-0.1,2.9-0.3,6-0.4,9.4c-0.2,3.4-0.3,6.6-0.4,9.5c-0.1,3-0.2,5.6-0.2,7.8
			C247.9,259.3,248,260.7,248.2,261.2z"/>
		<path d="M267.9,200.2c1.6,0,3.2,0.5,4.6,1.5c1.5,1,2.2,2.3,2.2,3.9c0,1.2-0.3,2.4-0.9,3.5c-0.6,1.1-1.4,2.1-2.3,3
			c-0.9,0.9-1.9,1.6-3,2.1c-1.1,0.5-2.2,0.8-3.2,0.8c-1.3,0-2.4-0.2-3.2-0.7c-0.8-0.4-1.4-1-1.9-1.6c-0.4-0.6-0.8-1.3-0.9-2
			c-0.2-0.7-0.2-1.4-0.2-2.1c0-0.8,0.1-1.7,0.4-2.7c0.2-1,0.7-1.9,1.3-2.8c0.6-0.9,1.5-1.6,2.7-2.1
			C264.6,200.4,266.1,200.2,267.9,200.2z M259.4,224.4c0-0.5,0.6-1,1.9-1.6c1.3-0.6,2.7-1,4.3-1.4c1.6-0.4,3-0.6,4.4-0.6
			c1.3,0,2,0.3,2,0.9c0,1.2-0.1,2.9-0.2,5.2c-0.2,2.2-0.4,4.6-0.6,7.1c-0.2,2.5-0.5,4.9-0.7,7.4c-0.2,2.5-0.4,4.6-0.5,6.3
			c-0.2,1.8-0.3,3.7-0.5,5.8c-0.2,1.8-0.3,3.8-0.4,6c-0.1,2.2-0.1,4.4,0,6.7c0,0.4-0.4,0.8-1.2,1.2c-0.8,0.4-1.7,0.7-2.7,0.9
			c-1,0.2-1.9,0.3-2.8,0.3c-0.9,0-1.4-0.2-1.5-0.5c-0.2-0.3-0.3-0.9-0.5-1.7c-0.2-0.8-0.3-2-0.5-3.5c-0.2-1.5-0.3-3.4-0.4-5.8
			c-0.1-2.4,0-5.3,0.1-8.7c0.3-6.7,0.4-11.9,0.1-15.6C259.6,229,259.4,226.2,259.4,224.4z M264.8,211.5c0.5,0,1-0.2,1.6-0.5
			c0.6-0.4,1.2-0.8,1.7-1.3c0.5-0.5,1-1,1.3-1.6c0.4-0.6,0.5-1.1,0.5-1.5c0-0.6-0.3-1-1-1c-0.4,0-0.9,0.2-1.5,0.5
			c-0.6,0.3-1.2,0.7-1.8,1.2c-0.6,0.4-1,0.9-1.4,1.5c-0.4,0.5-0.5,1-0.5,1.5C263.9,211.1,264.2,211.5,264.8,211.5z"/>
		<path d="M296.2,188.6c-0.2,2.9-0.4,6.3-0.9,10.1c-0.4,3.8-0.8,7.9-1.3,12.3c-0.4,4.4-0.9,9-1.3,13.7c-0.4,4.8-0.8,9.6-1.2,14.5
			c-0.3,4.9-0.5,8.8-0.4,11.9c0,3,0.2,5.5,0.5,7.5c0.3,1.9,0.8,3.5,1.3,4.6c0.6,1.1,1.3,2.2,2.2,3.3c-1.1,0.6-2,1.1-2.9,1.5
			c-0.9,0.3-1.7,0.6-2.3,0.7c-0.8,0.2-1.5,0.4-2.2,0.4c-1.2,0-2.3-0.6-3.2-1.8c-0.9-1.2-1.6-2.7-2.1-4.6c-0.5-1.9-0.9-4-1.2-6.3
			c-0.3-2.3-0.4-4.6-0.4-6.9c0-2.4,0.1-5.2,0.2-8.5c0.2-3.2,0.3-6.6,0.5-10.2c0.2-3.6,0.4-7.4,0.7-11.3c0.2-3.9,0.4-7.8,0.6-11.7
			c0.2-3,0.3-5.7,0.5-8.2c0.2-2.1,0.3-4,0.4-5.8c0.1-1.7,0-2.8-0.1-3.1c0.5-0.6,1.1-1.1,1.8-1.5c0.7-0.3,1.4-0.6,2.1-0.9
			c0.8-0.2,1.6-0.4,2.4-0.6h2.3c0.6,0,1.3,0.1,2.1,0.2C295.1,188.2,295.7,188.4,296.2,188.6z"/>
		<path d="M337.9,220.7c0.2,7.1,0.3,13.4,0.4,18.7c0.1,5.4,0.2,9.9,0.2,13.5c0.1,4.3,0.1,8,0.1,11.1c0.1,3.8-0.2,7.8-0.9,11.9
			c-0.7,4.1-1.8,7.8-3.3,11.3c-1.5,3.4-3.6,6.2-6.1,8.4c-2.5,2.2-5.6,3.3-9.1,3.3c-4.3,0-7.6-0.9-9.9-2.6c-2.3-1.7-3.9-3.7-5-5.9
			c-1.1-2.2-1.7-4.2-1.8-6.1c-0.2-1.9-0.2-3-0.2-3.3c0-0.6,0.4-1.4,1.2-2.2c0.8-0.8,2-1.5,3.6-2.2c0.6-0.2,1.3-0.4,1.9-0.6
			c0.6-0.2,1.1-0.3,1.7-0.4c0.6-0.1,1.1,0,1.6,0.1c-0.8,1.5-1.3,3.1-1.4,5c-0.1,1.9,0.1,3.6,0.7,5.3c0.6,1.7,1.5,3.1,2.7,4.2
			c1.2,1.1,2.8,1.7,4.6,1.7c2.6,0,4.6-0.8,6.1-2.3c1.5-1.5,2.6-3.3,3.4-5.5c0.8-2.2,1.3-4.5,1.5-6.9c0.2-2.4,0.3-4.6,0.3-6.4
			c0-1.5,0-3.3-0.1-5.7c0-2.3-0.2-4.9-0.4-7.7c-1,1.6-2.1,3.2-3.4,4.7c-1.3,1.5-2.7,2.8-4.1,4c-1.5,1.1-2.9,2-4.4,2.7
			c-1.5,0.7-3,1-4.4,1c-2.5,0-4.5-0.8-6.1-2.4c-1.5-1.6-2.7-3.6-3.5-6c-0.8-2.4-1.4-5-1.6-7.8c-0.3-2.8-0.4-5.4-0.4-7.7
			c0-1.8,0.1-4,0.2-6.5c0.2-2.6,0.4-5,0.6-7.4c0.2-2.4,0.5-4.4,0.9-6.1c0.4-1.7,0.7-2.7,1.2-3c2.4-1.4,4.7-2.1,6.9-2.3
			c2.3-0.2,4,0.1,5.1,0.9c-1,0.7-1.8,1.9-2.4,3.6c-0.7,1.7-1.2,3.6-1.6,5.7c-0.4,2.1-0.7,4.2-0.9,6.4c-0.2,2.2-0.2,4.2-0.2,6
			c0,1.5,0,3.2,0.1,5.2c0.1,2,0.3,4,0.5,5.8c0.3,1.9,0.7,3.4,1.3,4.7c0.6,1.3,1.3,1.9,2.2,1.9c1.8,0,3.4-0.6,5-1.9
			c1.5-1.3,2.9-2.9,4.1-4.9c1.2-1.9,2.1-4,2.7-6.3c0.6-2.2,1-4.3,1-6.3v-1c-0.2-2.1-0.3-4.1-0.5-6c-0.2-1.9-0.3-3.6-0.4-5.2
			c-0.1-1.5-0.2-2.8-0.2-3.8c0-1-0.1-1.7-0.1-2c0-0.8,0.5-1.5,1.6-2.2c1.1-0.6,2.3-1.1,3.6-1.4c1.3-0.3,2.6-0.4,3.6-0.3
			C337.4,219.7,337.9,220.1,337.9,220.7z"/>
	</g>
	<g>
		<path d="M169.8,339.5c-0.8,0-1.6,0.5-2.5,1.4c-0.9,1-1.5,2.1-2,3.4c-0.5,1.3-0.6,2.7-0.5,4.1c0.1,1.4,0.8,2.6,2,3.6
			c0.8,0.6,1.6,1,2.4,1.1c0.8,0.1,1.7,0,2.5-0.3c0.8-0.3,1.6-0.7,2.3-1.2c0.7-0.5,1.3-1.1,1.9-1.8c0.8-0.9,1.2-1.8,1.4-2.7
			c0.2-0.9,0.1-1.8-0.1-2.8s-0.5-1.9-1-2.8c-0.5-0.9-1-1.9-1.4-2.8c-0.5-0.9-1-1.9-1.6-3.1c-0.6-1.2-1.1-2.6-1.4-4
			c-0.3-1.5-0.3-3-0.1-4.5c0.2-1.6,1-3.1,2.3-4.7c0.8-1,1.9-1.8,3.3-2.4c1.4-0.6,2.9-0.9,4.6-1c1.7,0,3.4,0.2,5.3,0.8
			c1.8,0.6,3.6,1.6,5.3,3.1c1.7,1.4,3,2.7,3.8,3.9c0.8,1.2,1.3,2.3,1.5,3.2c0.2,1,0.1,1.8-0.1,2.6c-0.3,0.7-0.6,1.4-1,1.9
			c-0.4,0.5-1,0.9-1.7,1.2c-0.7,0.3-1.5,0.4-2.3,0.5c-0.8,0.1-1.5,0.1-2.2,0.1c-0.7,0-1.3-0.1-1.6-0.2c0.4-0.2,1-0.6,1.7-1.2
			c0.7-0.5,1.2-1.2,1.5-2c0.3-0.8,0.3-1.8-0.1-2.9c-0.4-1.1-1.4-2.4-3.1-3.8c-1-0.8-2.1-1.4-3.2-1.9c-1.2-0.5-2.3-0.7-3.4-0.8
			c-1.1-0.1-2.1,0-3.1,0.3c-0.9,0.3-1.7,0.7-2.2,1.4c-0.5,0.6-0.8,1.4-0.8,2.2c0,0.9,0.2,1.8,0.6,2.9c0.4,1.1,0.8,2.2,1.4,3.5
			c0.6,1.2,1.2,2.5,1.9,3.9c0.7,1.3,1.3,2.6,1.9,4c0.6,1.3,1,2.7,1.2,4c0.2,1.3,0.3,2.6,0,3.8c-0.2,1.2-0.8,2.4-1.7,3.5
			c-1,1.2-2.1,2.1-3.4,2.8c-1.3,0.7-2.7,1.2-4.2,1.3c-1.5,0.2-3,0-4.5-0.5c-1.6-0.5-3.1-1.3-4.5-2.5c-1.3-1.1-2.3-2.3-3.1-3.6
			c-0.8-1.4-1.4-2.7-1.7-4.1c-0.3-1.4-0.4-2.7-0.2-3.9c0.2-1.2,0.6-2.2,1.2-3c0.7-0.8,1.5-1.4,2.3-1.7c0.9-0.3,1.7-0.4,2.6-0.2
			c0.8,0.1,1.6,0.3,2.3,0.7C168.8,338.6,169.4,339,169.8,339.5z"/>
		<path d="M213.7,350.7c-0.3-0.3-0.7-0.6-1.3-1c-0.6-0.4-1.1-0.8-1.7-1.1c-0.7-0.4-1.4-0.8-2.2-1.3c-0.8-0.5-1.7-1.1-3-1.7
			c-1.2-0.6-2.5-1.3-3.8-2c-0.5,0.8-1,1.6-1.6,2.4c-0.6,0.8-1.1,1.6-1.6,2.4c-1,1.4-2,2.9-3,4.4c-1,1.5-1.9,3-2.7,4.4
			c-0.8,1.4-1.4,2.8-1.9,4c-0.5,1.3-0.6,2.3-0.5,3.3c-0.5,0.1-1.1,0.1-1.6,0c-0.5-0.1-1-0.2-1.4-0.3c-0.5-0.1-0.9-0.3-1.3-0.5
			c-0.4-0.2-0.6-0.5-0.7-0.9c-0.1-0.4,0-0.9,0.3-1.6c0.5-1.1,1.1-2.2,1.8-3.3c0.7-1.1,1.3-2.2,2.1-3.4c0.7-1.2,1.5-2.4,2.4-3.7
			c0.9-1.3,1.8-2.8,2.8-4.4c1-1.7,2-3.3,2.9-4.9c-1.2-0.6-2.3-1.2-3.1-1.6c-0.8-0.5-1.3-0.7-1.4-0.8c-0.1-0.1-0.1-0.3-0.1-0.6
			c0-0.3,0-0.6,0-1.1c0-0.5,0-1.2,0.1-2.1c0.6,0.3,1.3,0.7,2,1.1c0.7,0.4,1.4,0.7,2,1c0.7,0.4,1.4,0.7,2.1,1.1
			c0.2-0.5,0.5-1.1,0.8-1.6c0.2-0.5,0.5-1,0.8-1.5c0.3-0.6,0.6-1.1,0.8-1.6c0.1-0.2,0.5-0.3,1.1-0.3c0.6,0,1.2,0,1.9,0.1
			c0.7,0.1,1.2,0.2,1.7,0.4c0.5,0.2,0.7,0.4,0.5,0.7s-0.5,1-1.2,2.1s-1.4,2.4-2.3,3.9c0.3,0.2,0.6,0.3,0.7,0.3
			c1.7,0.9,3.1,1.5,4.2,2c1.1,0.5,1.9,0.9,2.6,1.4c0.6,0.4,1.1,0.9,1.5,1.4c0.4,0.5,0.7,1.3,1,2.2c0.1,0.3,0.2,0.6,0.2,0.9
			c0.1,0.3,0.1,0.6,0.1,0.9C213.9,350.2,213.8,350.4,213.7,350.7z"/>
		<path d="M213,371.9c0,0.3,0,0.5,0.1,0.8c0,0.2,0.1,0.4,0.3,0.6c0.1,0.2,0.3,0.4,0.6,0.5c-0.4,0.4-0.8,0.6-1.1,0.7
			c-0.2,0.1-0.3,0.1-0.4,0.1c-0.3,0-0.8-0.1-1.4-0.4c-0.6-0.2-1.1-0.6-1.6-1.2c-0.1-0.2-0.2-0.6-0.3-1c-0.1-0.3-0.1-0.8,0-1.3
			c0.1-0.5,0.2-1.2,0.4-2c-0.9,0.8-1.7,1.5-2.5,1.8c-0.8,0.4-1.6,0.6-2.2,0.7c-0.8,0.1-1.5,0.1-2.2-0.1c-0.9-0.2-1.6-0.7-2.3-1.3
			c-0.6-0.6-1.1-1.4-1.3-2.3c-0.3-0.9-0.3-2-0.2-3.1c0.1-1.2,0.5-2.4,1.1-3.7c0.6-1.4,1.3-2.5,2.2-3.4c0.8-0.9,1.7-1.7,2.7-2.3
			c0.9-0.6,1.8-1.1,2.7-1.5c0.9-0.3,1.7-0.6,2.5-0.8c0.8-0.2,1.4-0.2,2-0.3c0.5,0,0.9,0,1,0c0.4,0,0.7,0.1,1,0.3
			c0.3,0.1,0.4,0.4,0.5,0.7c0,0.1,0.1,0.3,0.1,0.5c0,0.2,0,0.4,0.1,0.6c0,0.3,0,0.5,0,0.8c-1,0.1-1.9,0.2-2.8,0.4
			c-0.9,0.2-1.7,0.5-2.6,0.9c-0.8,0.4-1.6,1-2.4,1.8c-0.8,0.8-1.5,1.8-2.3,3c-1,1.5-1.4,2.9-1.2,4.1c0.2,1.2,0.7,1.9,1.7,2.1
			c0.6,0,1.3-0.1,1.9-0.4c0.6-0.2,1.3-0.7,2.1-1.3c0.8-0.6,1.7-1.6,2.6-2.9c0.9-2,1.7-3.5,2.2-4.7c0.5-1.1,1-2,1.3-2.6
			c0.4-0.7,0.7-1.1,0.8-1.3c0.2-0.1,0.4-0.2,0.8-0.3c0.4,0,0.7,0,1.2,0c0.4,0,0.8,0.1,1.1,0.2c0.3,0.1,0.5,0.2,0.6,0.3
			c0.1,0.1-0.1,0.5-0.4,1.3c-0.3,0.8-0.7,1.8-1.2,3c-0.5,1.2-1,2.5-1.6,3.9c-0.6,1.4-1.1,2.7-1.6,3.9c-0.5,1.2-1,2.3-1.3,3.3
			C213.2,371,213.1,371.6,213,371.9z"/>
		<path d="M226.9,376.4c-0.1,0.2-0.3,0.4-0.7,0.6c-0.4,0.2-0.8,0.3-1.3,0.4c-0.5,0.1-0.9,0.2-1.3,0.1c-0.4,0-0.7-0.1-0.8-0.3
			c-0.1-0.2-0.3-0.5-0.6-0.9c-0.3-0.4-0.4-1.1-0.3-2c0.1-0.9,0.2-2.1,0.5-3.5c0.2-1.4,0.5-3,0.7-4.7l0.3-2.1
			c0.1-0.6,0.2-1.4,0.3-2.3c0.1-0.9,0.2-1.8,0.3-2.7c0.4-0.1,0.7-0.2,1.1-0.4c0.4-0.1,0.7-0.2,1-0.3c0.3-0.1,0.7-0.1,1-0.2
			c0.8-0.1,1.4-0.1,1.8-0.1c0.4,0,0.6,0.2,0.6,0.5c0,0.2-0.1,0.7-0.3,1.5c-0.2,0.7-0.4,1.8-0.8,3.2s-0.8,3.4-1.5,6
			c0.6-1.1,1.2-2,1.6-2.8c0.4-0.8,0.8-1.4,1.1-1.9c0.3-0.6,0.6-1,0.8-1.4c0.3-0.4,0.6-0.9,0.9-1.4c0.4-0.5,0.8-1,1.1-1.5
			c0.4-0.5,0.7-0.9,1.1-1.2c0.3-0.4,0.6-0.6,0.7-0.6c0.1-0.1,0.4,0,1,0.2c0.5,0.2,1.1,0.4,1.6,0.8c0.6,0.4,1.1,0.8,1.6,1.4
			c0.5,0.6,0.8,1.2,0.8,1.9c0.1,0.8,0,1.9-0.3,3.2c-0.3,1.3-0.6,2.6-0.9,3.9c-0.3,1.3-0.6,2.6-0.9,3.8c-0.3,1.2-0.3,2.1-0.2,2.8
			c0,0.4,0.1,0.7,0.2,1c0,0.3,0.1,0.6,0.2,0.8s0.2,0.4,0.3,0.6c-0.9,0.3-1.7,0.4-2.2,0.5c-0.6,0.1-1,0.2-1.3,0.2
			c-0.4,0.1-0.6,0-0.8,0c-0.3-0.2-0.5-0.5-0.7-0.9c-0.2-0.5-0.3-1.2-0.3-2.1c0-0.3,0-0.8,0.1-1.4c0.1-0.7,0.3-1.4,0.5-2.2
			c0.2-0.8,0.4-1.7,0.7-2.6c0.2-0.9,0.4-1.7,0.6-2.5c0.2-0.8,0.3-1.5,0.5-2.1c0.1-0.6,0.2-1,0.2-1.2c-0.1-0.7-0.3-1.2-0.5-1.5
			c-0.3-0.3-0.5-0.4-0.7-0.2c-0.6,0.5-1.2,1.3-1.9,2.4s-1.4,2.3-2.1,3.7c-0.7,1.3-1.3,2.7-1.9,4
			C227.5,374.3,227.2,375.5,226.9,376.4z"/>
		<path d="M262.2,345c0,0.4,0,1.2,0,2.3c0,1.2-0.1,2.6-0.1,4.2c-0.1,1.6-0.1,3.4-0.2,5.4c0,2-0.1,4-0.1,6c0,2,0,3.9,0,5.7
			c0,1.8,0,3.3,0.1,4.7c0.1,1.4,0.2,2.5,0.3,3.4c0.1,0.9,0.3,1.5,0.6,1.9l-2.4,1c-0.2,0.1-0.4,0.1-0.6,0.1c-0.3,0-0.5-0.1-0.8-0.2
			c-0.3-0.1-0.5-0.4-0.7-0.7c-0.2-0.4-0.3-0.9-0.3-1.5c0-0.3,0-0.6,0-1s0-0.8,0-1.3c-0.4,0.7-0.9,1.5-1.3,2.2
			c-0.5,0.7-1,1.3-1.6,1.8c-0.6,0.5-1.2,1-1.9,1.3c-0.7,0.3-1.4,0.5-2.2,0.5c-0.7,0-1.4-0.1-2.1-0.4c-0.7-0.3-1.3-0.7-1.9-1.3
			c-0.6-0.6-1-1.4-1.4-2.3c-0.4-1-0.6-2.1-0.6-3.5c-0.1-2.5,0.1-4.7,0.7-6.6c0.5-1.9,1.2-3.5,2-4.7c0.8-1.3,1.8-2.3,2.8-2.9
			c1-0.7,2-1,2.8-1c1.3,0,2.4,0.3,3.1,1c0.7,0.7,1.3,1.4,1.6,2.2c0-1.1,0-2,0-3s0-1.7,0-2.4c-0.1-2.7-0.2-5.1-0.4-7.2
			c-0.2-2.1-0.5-3.7-1-4.8c0.5-0.3,1-0.5,1.4-0.7c0.4-0.2,0.8-0.3,1.1-0.4c0.4-0.1,0.7-0.2,1-0.2c0.8,0,1.4,0.2,1.7,0.6
			C262,343.7,262.2,344.3,262.2,345z M257.8,370.4c0-0.9,0.1-1.9,0-3c0-1,0-2.1,0-3.1c-0.2,0.4-0.5,0.8-0.9,1.1
			c-0.3,0.3-0.7,0.4-1.1,0.3c0.1-1.1,0.1-1.9-0.1-2.5c-0.2-0.6-0.4-1-0.7-1.3c-0.3-0.3-0.7-0.5-1.2-0.5c-0.7,0-1.3,0.4-1.9,1.2
			c-0.6,0.7-1.1,1.7-1.6,2.7c-0.5,1.1-0.8,2.2-1.1,3.5c-0.3,1.2-0.4,2.3-0.3,3.4c0.1,2,0.4,3.4,1,4.2c0.6,0.8,1.2,1.2,1.9,1.1
			c0.5,0,1.1-0.3,1.7-0.7s1.1-1,1.7-1.7c0.5-0.7,1-1.5,1.5-2.3C257.2,371.9,257.6,371.2,257.8,370.4z"/>
		<path d="M301.2,373.3c-0.2,0.6-0.5,1.1-0.9,1.5c-0.4,0.4-0.8,0.7-1.2,0.9c-0.4,0.3-1,0.5-1.5,0.6c-0.2,0.1-0.5,0.1-0.7,0
			c-0.2,0-0.5,0-0.8-0.1c-0.3-0.1-0.5-0.2-0.8-0.4c-1-1.6-1.9-3.2-2.8-4.7c-0.9-1.5-1.6-2.9-2.2-4.1c-0.8-1.4-1.5-2.7-2.1-4
			c-1,0.2-2.4,0.6-4.2,1.2c-1.9,0.6-3.8,1.2-5.9,2.1c-0.1,2.3-0.1,4.2-0.1,5.7c0,1.5,0.1,2.8,0.2,3.8s0.2,1.8,0.5,2.4
			s0.5,1.1,0.8,1.5c-0.3,0.6-0.7,1.1-1.1,1.5s-0.8,0.6-1.2,0.8c-0.4,0.2-0.8,0.4-1.3,0.5c-0.6,0.1-1.1,0.1-1.4,0.1
			c-0.4,0-0.7-0.1-0.9-0.4c-0.2-0.2-0.4-0.6-0.5-1.1c-0.1-0.5-0.1-1.2-0.2-2c0-0.8,0-2.1,0.1-4.1c0.1-2,0.1-4.2,0.2-6.7
			c-1.3,0.5-2.3,0.7-3.1,0.7c-0.8,0-1.5-0.6-2.1-1.6c0.5-0.3,1.1-0.7,1.7-1c0.6-0.3,1.2-0.7,1.7-1c0.6-0.3,1.3-0.6,1.9-0.9
			c0.1-2.5,0.2-5,0.3-7.4c0.1-2.5,0.3-4.7,0.4-6.6l0.7-9c0-0.2,0.3-0.6,0.9-1c0.6-0.4,1.3-0.8,2-1.2c0.8-0.4,1.5-0.7,2.2-0.9
			s1.2-0.2,1.5,0.1c0.3,0.7,0.7,1.6,1.2,2.6c0.5,1,1,2,1.4,3c0.5,1.1,1.1,2.3,1.8,3.5c0.8,1.7,1.7,3.5,2.7,5.5c1,2,2.1,4.2,3.3,6.4
			s2.6,4.6,4.1,6.9C297.6,368.6,299.3,371,301.2,373.3z M282,361.1c1.1-0.4,2-0.6,2.8-0.8s1.4-0.4,1.9-0.5l-0.4-0.7
			c-0.6-1.2-1.2-2.5-1.8-3.9c-0.6-1.4-1.3-2.8-1.9-4.1c-0.6-1.4-1.2-2.7-1.8-3.9c-0.6-1.2-1.1-2.3-1.5-3.3c-0.1,1-0.2,2.2-0.3,3.6
			c-0.1,1.4-0.2,2.9-0.3,4.6c-0.1,1.6-0.2,3.4-0.2,5.2c-0.1,1.8-0.1,3.6-0.2,5.3c0.6-0.2,1.2-0.5,1.8-0.7
			C280.6,361.5,281.3,361.3,282,361.1z"/>
		<path d="M306,342.8c0.9-0.5,1.8-0.7,2.9-0.7s2.1,0.4,3.1,0.9c1,0.5,2,1.2,2.9,2.1c0.9,0.9,1.7,1.9,2.4,3c0.7,1.1,1.2,2.4,1.7,3.8
			c0.5,1.4,0.8,2.8,0.8,4.2c0.1,1.4-0.1,2.7-0.5,3.9s-1.3,2.2-2.5,2.9c-1,0.6-2.1,0.7-3.4,0.5c-1.3-0.2-2.5-0.7-3.5-1.5
			c0.6,1.1,1.1,2.3,1.5,3.6c0.4,1.3,1.1,2.7,2.1,4.3c0.3,0.5,0.6,1,1,1.6c0.4,0.6,0.8,1.1,1.2,1.7c0.4,0.6,0.8,1.1,1.2,1.5
			c0.4,0.4,0.8,0.7,1.1,0.9c-0.4,0.6-0.7,1.1-1,1.5c-0.3,0.4-0.6,0.7-0.9,1c-0.3,0.3-0.6,0.5-0.9,0.7c-0.4,0.2-0.8,0.2-1.1-0.1
			c-0.3-0.3-0.7-0.8-1.3-1.7c-0.3-0.6-0.8-1.4-1.3-2.5c-0.6-1.1-1.2-2.3-1.9-3.7c-0.7-1.4-1.5-2.9-2.2-4.4c-0.8-1.5-1.6-3-2.3-4.5
			c-0.8-1.5-1.5-2.9-2.1-4.1c-0.7-1.3-1.3-2.3-1.7-3.2c-0.6-1-1.1-1.8-1.5-2.4c-0.4-0.6-0.7-1-0.9-1.2c-0.2-0.3-0.4-0.5-0.5-0.5
			c-0.1-0.1-0.3-0.2-0.5-0.3c0.2-0.4,0.4-0.8,0.7-1.2c0.3-0.4,0.6-0.8,1-1.1c0.3-0.3,0.7-0.5,1-0.7c0.3-0.2,0.7-0.2,0.9-0.2
			c0.2,0.1,0.5,0.2,0.8,0.5c0.3,0.3,0.6,0.7,1,1.3c0.1-1.2,0.4-2.3,0.8-3.3C304.3,344.3,305,343.4,306,342.8z M313.9,360.7
			c0.6-0.3,1-0.9,1.2-1.7c0.2-0.8,0.3-1.8,0.2-2.8c-0.1-1.1-0.3-2.2-0.7-3.3c-0.4-1.2-0.8-2.2-1.4-3.2c-0.6-1.1-1.3-1.9-1.9-2.5
			s-1.2-1-1.7-1.3s-1-0.4-1.5-0.3c-0.4,0-0.8,0.1-1,0.2c-0.6,0.3-1,0.9-1.3,1.7c-0.3,0.8-0.4,1.7-0.3,2.7c0,1,0.2,2,0.5,3.1
			s0.7,2.1,1.3,3c0.5,0.9,1.1,1.6,1.7,2.3c0.6,0.7,1.2,1.2,1.8,1.6s1.2,0.7,1.7,0.8C313,361,313.5,360.9,313.9,360.7z"/>
		<path d="M323,330.1c0.8-0.7,1.7-1.1,2.7-1.2c1-0.1,2.1-0.1,3.2,0.2c1.1,0.3,2.2,0.8,3.2,1.5c1.1,0.7,2,1.5,2.9,2.5
			c0.9,1,1.7,2.1,2.4,3.4c0.7,1.3,1.3,2.6,1.6,3.9c0.4,1.3,0.4,2.6,0.2,3.9c-0.2,1.3-0.8,2.4-1.9,3.3c-0.8,0.7-1.9,1.1-3.2,1.2
			c-1.3,0-2.5-0.2-3.8-0.8c0.8,1,1.5,2.1,2.2,3.2c0.7,1.2,1.6,2.4,2.9,3.8c0.4,0.4,0.8,0.9,1.3,1.4c0.5,0.5,1,1,1.5,1.4
			c0.5,0.5,1,0.9,1.5,1.2c0.5,0.3,0.9,0.6,1.3,0.7c-0.2,0.7-0.5,1.2-0.7,1.7c-0.2,0.5-0.5,0.8-0.7,1.1c-0.2,0.3-0.5,0.6-0.7,0.9
			c-0.4,0.3-0.7,0.4-1.1,0.2c-0.4-0.2-0.9-0.7-1.6-1.4c-0.4-0.5-1-1.2-1.8-2.2c-0.8-0.9-1.6-2-2.6-3.3s-2-2.5-3-3.9
			c-1.1-1.4-2.1-2.7-3.2-4c-1-1.3-2-2.5-2.9-3.6c-0.9-1.1-1.7-2-2.3-2.8c-0.8-0.9-1.4-1.6-1.9-2.1c-0.5-0.5-0.8-0.8-1.1-1.1
			c-0.3-0.2-0.5-0.4-0.6-0.4c-0.2-0.1-0.3-0.1-0.5-0.2c0.1-0.4,0.2-0.8,0.4-1.3c0.2-0.4,0.5-0.9,0.7-1.2c0.3-0.4,0.6-0.7,0.9-0.9
			c0.3-0.2,0.6-0.4,0.9-0.4c0.3,0,0.5,0.1,0.8,0.3c0.3,0.2,0.7,0.6,1.3,1.1c-0.1-1.2-0.1-2.3,0.1-3.4
			C321.6,331.8,322.2,330.9,323,330.1z M334.3,346.1c0.5-0.4,0.8-1.1,0.8-1.9c0-0.9-0.1-1.8-0.4-2.8c-0.3-1-0.7-2.1-1.3-3.1
			c-0.6-1.1-1.2-2-2-2.9c-0.8-1-1.6-1.7-2.3-2.1c-0.7-0.5-1.4-0.8-1.9-0.9s-1.1-0.2-1.5-0.1c-0.4,0.1-0.7,0.2-1,0.4
			c-0.5,0.5-0.8,1.1-0.9,1.9c-0.1,0.8,0,1.7,0.2,2.7c0.2,1,0.6,2,1.1,3c0.5,1,1.1,1.9,1.9,2.7c0.7,0.8,1.4,1.4,2.1,1.9
			c0.7,0.5,1.4,0.9,2.1,1.2c0.7,0.3,1.3,0.4,1.8,0.4C333.5,346.5,334,346.4,334.3,346.1z"/>
	</g>
</g>
<rect x="53.2" y="-324.8" class="st0" width="381.9" height="68.8"/>
<polyline class="st0" points="317.6,-229 170.8,-221.6 170.8,-359.2 "/>
<g>
	<path class="st1" d="M28.1-194c11.8,27.2,30.4,54.3,50.8,74.4c21.1,20.9,46.9,38.1,74.3,49.4c38.9,16.2,78.2,21.6,119.6,16.2
		c24-3.1,44.2-8.9,64.7-18.1c60.5-27.5,105.9-79.1,125.1-142.2c4-13.2,7.2-28.7,5.7-28.5c-0.7,0-2,3-3.2,8.2
		c-5.7,22-11.9,38.1-21.8,55.1c-8.2,14.3-14.6,23.1-25.4,35.3c-12.1,13.7-22.2,22.2-38.5,33.2c-25.2,16.8-51.2,27.3-79.7,32.1
		c-70.9,11.7-142.7-13.9-190.6-67.9c-3.9-4.6-10.7-13.3-16.1-21.4l-9.4-13.7l-27.9-8.5C40-195,27-198.8,26.7-198.8
		C26.3-198.9,26.8-196.7,28.1-194z"/>
	<path class="st2" d="M366.6-127.7c27.8-19.7,49.8-47.5,62.4-79.2c3.9-9.7,8.7-29.2,10.1-40c1.3-11.1,1.6-27,0.4-35.5
		c-0.5-3.6-0.6-6.6-0.4-7c0.5-0.2,11.3,0.1,31.6,1.1c4.6,0.1,7.8,0.1,7.1-0.2c-0.6-0.4-21.1-10.5-45.3-22.2l-44.2-21.6l2.3,5.9
		c18.3,45.7,11.9,97.1-16.7,138.8c-36.9,53.5-103.8,79.2-166.2,63.7c-35.2-8.8-65.9-29.7-84.3-57.5c-3.9-5.9-4.6-6.5-3.9-4.2
		c1,3.6,13,22.6,18.9,29.9C175-110.7,232.8-89,291.9-97.8c11.7-1.8,27.2-6,38.7-10.7C341.1-112.7,358.1-121.7,366.6-127.7z"/>
	<path class="st3" d="M133.4-413.5C105.6-393.8,83.6-366,71-334.3c-3.9,9.7-8.7,29.2-10.1,40c-1.3,11.1-1.6,27-0.4,35.5
		c0.5,3.6,0.6,6.6,0.4,7c-0.5,0.2-11.3-0.1-31.6-1.1c-4.6-0.1-7.8-0.1-7.1,0.2c0.6,0.4,21.1,10.5,45.3,22.2l44.2,21.6l-2.3-5.9
		c-18.3-45.7-11.9-97.1,16.7-138.8c36.9-53.5,103.8-79.2,166.2-63.7c35.2,8.8,65.9,29.7,84.3,57.5c3.9,5.9,4.6,6.5,3.9,4.2
		c-1-3.6-13-22.6-18.9-29.9c-36.9-44.8-94.6-66.5-153.7-57.7c-11.7,1.8-27.2,6-38.7,10.7C158.9-428.7,141.8-419.5,133.4-413.5z"/>
	<path class="st4" d="M471.9-350.5c-11.9-27.2-30.5-54.6-51-74.8c-21.1-21-46.9-38.3-74.2-49.8c-38.8-16.5-78-22-119.2-16.8
		c-23.9,3-44,8.7-64.3,17.8c-60,27.3-104.8,78.5-123.8,141.6c-4,13.2-7,28.7-5.5,28.5c0.7,0,1.9-3,3.1-8.2c5.5-22,11.7-38,21.4-54.9
		c8.1-14.3,14.3-23.1,25.1-35.2c12-13.6,22-22.1,38.1-32.9c25-16.7,50.8-27,79.2-31.6c70.6-11.3,142.2,14.7,190.3,69
		c3.9,4.6,10.7,13.3,16.2,21.5l9.4,13.8l27.9,8.5c15.5,4.8,28.3,8.7,28.7,8.7C473.8-345.6,473.2-347.9,471.9-350.5z"/>
</g>
<rect x="125.8" y="-338.3" class="st0" width="231.7" height="83.2"/>
<text transform="matrix(1 0 0 1 139.7718 -255.4663)" style="font-family:'Rancho-Regular'; font-size:124.5725px;">Daily</text>
<path id="SVGID_x5F_00000150794057036716768850000007149209236302296209_x5F__00000119827086595141560920000016868395185507155844_" class="st0" d="
	M379.7-290.4c0-74.8-60.6-135.5-135.5-135.5s-135.5,60.6-135.5,135.5s60.6,135.5,135.5,135.5S379.7-215.6,379.7-290.4z"/>
<path id="SVGID_x5F_1_x5F_" class="st0" d="M120.1-272.9c0,71.8,58.2,129.9,129.9,129.9s129.9-58.2,129.9-129.9
	S321.8-402.8,250-402.8S120.1-344.6,120.1-272.9z"/>
<text><textPath  xlink:href="#SVGID_x5F_1_x5F_" startOffset="-166.6667%">
<tspan  style="font-family:'Rancho-Regular'; font-size:55.7041px;">StandApp</tspan></textPath>
</text>
<g>
	<g>
		<path class="st1" d="M620.5,277.6c5.5,12.5,14,25,23.4,34.3c9.8,9.7,21.6,17.5,34.3,22.8c18,7.5,36,10,55.1,7.5
			c11.1-1.4,20.4-4.1,29.8-8.4c27.8-12.7,48.8-36.4,57.6-65.6c1.8-6.1,3.3-13.2,2.6-13.1c-0.3,0-1,1.4-1.5,3.8
			c-2.6,10.1-5.5,17.5-10,25.4c-3.8,6.6-6.8,10.6-11.7,16.3c-5.6,6.3-10.2,10.2-17.7,15.3c-11.6,7.7-23.5,12.6-36.8,14.7
			c-32.7,5.4-65.8-6.4-87.8-31.3c-1.8-2-4.9-6.1-7.4-9.9l-4.3-6.3l-12.9-4c-7.1-2.1-13.1-4-13.2-4
			C619.8,275.3,620,276.4,620.5,277.6z"/>
		<path class="st2" d="M776.5,308.1c12.8-9.1,23-21.9,28.7-36.5c1.8-4.5,4-13.4,4.6-18.4c0.6-5.1,0.6-12.5,0.2-16.3
			c-0.2-1.7-0.3-3.1-0.2-3.2c0.2-0.1,5.3,0.1,14.5,0.5c2,0.1,3.5,0.1,3.2-0.1c-0.3-0.2-9.8-4.8-20.9-10.2l-20.4-10l1.1,2.7
			c8.4,21.1,5.5,44.7-7.7,64c-17,24.6-47.8,36.5-76.6,29.3c-16.2-4.1-30.4-13.7-38.8-26.4c-1.8-2.7-2-3-1.8-1.9
			c0.4,1.7,6,10.4,8.7,13.8c17,20.6,43.5,30.6,70.8,26.5c5.4-0.9,12.5-2.8,17.8-4.9C764.9,315.1,772.6,310.9,776.5,308.1z"/>
		<path class="st3" d="M669.1,176.4c-12.8,9.1-23,21.9-28.7,36.5c-1.8,4.5-4,13.4-4.6,18.4c-0.6,5.1-0.6,12.5-0.2,16.3
			c0.2,1.7,0.3,3.1,0.2,3.2c-0.2,0.1-5.3-0.1-14.5-0.5c-2-0.1-3.5-0.1-3.2,0.1c0.3,0.2,9.8,4.8,20.9,10.2l20.4,10l-1.1-2.7
			c-8.4-21.1-5.5-44.7,7.7-64c17-24.6,47.8-36.5,76.6-29.3c16.2,4.1,30.4,13.7,38.8,26.4c1.8,2.7,2,3,1.8,1.9
			c-0.4-1.7-6-10.4-8.7-13.8c-17-20.6-43.5-30.6-70.8-26.5c-5.4,0.9-12.5,2.8-17.8,4.9C680.8,169.4,673,173.6,669.1,176.4z"/>
		<path class="st4" d="M825.1,205.4c-5.5-12.5-14.1-25.2-23.4-34.5c-9.8-9.7-21.6-17.6-34.2-23c-18-7.6-35.9-10.1-54.9-7.7
			c-11,1.4-20.3,4-29.7,8.2c-27.6,12.6-48.4,36.1-57.1,65.2c-1.8,6.1-3.2,13.2-2.6,13.1c0.3,0,0.9-1.4,1.4-3.8
			c2.6-10.1,5.4-17.5,9.9-25.4c3.8-6.6,6.6-10.6,11.6-16.2c5.6-6.2,10.1-10.2,17.5-15.2c11.5-7.7,23.4-12.5,36.5-14.5
			c32.5-5.3,65.6,6.8,87.7,31.8c1.8,2,4.9,6.1,7.5,9.9l4.3,6.3l12.9,4c7.1,2.1,13,4,13.2,4C825.9,207.7,825.7,206.6,825.1,205.4z"/>
	</g>
	<g class="st5">
		<path d="M856.4,189.4c-0.7-0.1-1.4-0.5-2-1.2c-0.7-0.7-1.3-1.5-1.8-2.3c-0.6-0.9-1.2-2-1.7-3.3c-0.6-1.6-1-2.9-1.1-4
			c-0.1-1.1-0.1-2.1,0.2-3c0.3-0.9,0.7-1.6,1.3-2.3c0.6-0.7,1.4-1.4,2.2-2.1c1.1-0.9,3-1.9,5.8-3.3c2.8-1.3,6.1-2.4,9.8-3.4v-1.2
			c0-0.4,0-0.7,0.1-1c0-0.3,0.1-0.6,0.1-0.9l10.4-3c0.7-0.2,1.5-0.3,2.2-0.1c0.8,0.2,1.1,0.9,0.9,2.2c0,0.4,0,0.8-0.1,1.2
			c0,0.4-0.1,0.8-0.2,1.3c5.6,0.2,10.8,1.2,15.4,3c4.6,1.9,8.6,4.4,11.9,7.6c3.3,3.2,5.9,7.1,7.7,11.5c1.8,4.4,2.8,9.3,2.8,14.5
			c0,7.7-1.2,14.4-3.7,20.1c-2.5,5.7-5.7,10.5-9.6,14.5c-4,4-8.4,7.2-13.5,9.6c-5,2.4-10,4.2-15,5.2c-0.6,0.5-1.5,1.1-2.5,1.6
			c-1.1,0.5-2.2,1-3.4,1.4c-1.2,0.4-2.5,0.7-3.8,0.9c-1.3,0.2-2.4,0.2-3.4,0.1c0-0.2,0-0.4,0.1-0.7c0-0.3,0.1-0.6,0.1-0.8
			c0-0.3,0-0.6,0.1-0.9c-3.4,0.2-6.4,0-9-0.5c-0.6-0.3-1.2-0.9-1.7-1.7c-0.3-0.3-0.5-0.7-0.7-1.2c-0.3-0.4-0.4-0.8-0.5-1.2
			c-0.3-0.7-0.3-1.6,0-2.6c4.3,0.5,8.4,0.5,12.4,0c0.3-3.3,0.5-7.4,0.8-12.2c0.3-4.8,0.5-10,0.8-15.6c0.2-3.3,0.3-6.7,0.5-10.4
			c0.1-3.7,0.2-7.4,0.3-11.1c0.1-3.7,0.2-7.3,0.3-10.8c0.1-3.5,0.1-6.7,0.1-9.7c-4.2,1.5-7.5,3.6-9.8,6.4
			C856.8,182.7,855.9,185.9,856.4,189.4z M880,190.1c-0.4,5.2-0.6,10.3-0.8,15.3c-0.2,5-0.3,9.7-0.3,14.1c0,4.4,0,8.5,0.1,12.1
			c0.1,3.6,0.2,6.7,0.3,9.2c8.4-2.8,15.2-7.5,20.3-14.1c5.1-6.6,7.6-14.9,7.6-24.8c0-4.4-0.6-8.3-1.8-12c-1.2-3.6-2.9-6.7-5.1-9.3
			c-2.2-2.6-4.8-4.6-7.9-6.1c-3.1-1.5-6.5-2.3-10.2-2.4h-0.5c-0.3,2.3-0.5,5-0.8,8C880.6,182.9,880.3,186.3,880,190.1z"/>
		<path d="M966,235.3c0.2,0.5,0.4,1,0.8,1.5c0.3,0.4,0.6,0.8,1.1,1.1c0.5,0.4,1.1,0.6,1.8,0.6c-0.6,1.1-1.2,1.8-1.8,2.2
			c-0.4,0.2-0.7,0.4-0.9,0.5c-0.8,0.2-2,0.4-3.6,0.4s-3.1-0.4-4.6-1.3c-0.5-0.4-1-1-1.5-1.7c-0.4-0.6-0.8-1.5-1.1-2.6
			c-0.3-1.1-0.6-2.6-0.7-4.4c-1.2,2.3-2.6,4.2-4.2,5.5c-1.5,1.4-3.1,2.4-4.6,3c-1.7,0.9-3.4,1.4-5.1,1.5c-2.2,0.2-4.3-0.2-6.3-1
			c-2-0.8-3.7-2.1-5-3.7c-1.4-1.7-2.4-3.7-3.1-6.1c-0.7-2.4-0.9-5.1-0.7-8.2c0.3-3.2,1-6,2.1-8.5c1.1-2.5,2.5-4.7,4.1-6.6
			c1.6-1.9,3.3-3.6,5-5c1.8-1.4,3.5-2.5,5.1-3.4c1.6-0.9,3-1.6,4.2-2c1.2-0.4,2-0.7,2.3-0.8c1-0.2,1.8-0.3,2.5-0.2
			c0.7,0.1,1.3,0.4,1.8,1c0.2,0.2,0.4,0.5,0.7,0.8c0.2,0.3,0.4,0.7,0.7,1.2c0.3,0.5,0.5,1.1,0.7,1.7c-2.1,0.9-4.1,1.8-5.9,2.9
			c-1.8,1-3.5,2.3-5.1,3.8c-1.5,1.5-2.9,3.3-4,5.4c-1.1,2.1-2,4.7-2.6,7.7c-0.9,3.8-0.6,6.9,0.7,9.2c1.4,2.3,3.2,3.3,5.6,2.9
			c1.4-0.4,2.8-1.1,4.1-2.2c1.1-0.9,2.4-2.3,3.6-4.2c1.3-1.9,2.5-4.4,3.6-7.7c0.4-4.7,0.8-8.3,1.1-11c0.3-2.7,0.6-4.7,0.9-6.1
			c0.4-1.6,0.6-2.7,0.8-3.3c0.3-0.4,0.8-0.8,1.6-1.1c0.8-0.4,1.7-0.6,2.6-0.9c1-0.2,1.8-0.4,2.6-0.4c0.8,0,1.3,0,1.6,0.1
			c0.2,0.1,0.3,1,0.3,2.9c0,1.8-0.1,4.1-0.2,6.9c-0.1,2.8-0.3,5.8-0.5,9c-0.2,3.2-0.3,6.3-0.5,9.2c-0.1,2.9-0.2,5.4-0.3,7.5
			C965.7,233.4,965.8,234.7,966,235.3z"/>
		<path d="M987.3,176.7c1.8,0,3.4,0.5,5,1.4s2.4,2.2,2.4,3.7c0,1.2-0.3,2.3-1,3.4c-0.7,1.1-1.5,2.1-2.4,2.9c-1,0.9-2.1,1.5-3.3,2
			c-1.2,0.5-2.4,0.8-3.4,0.8c-1.4,0-2.6-0.2-3.4-0.6c-0.9-0.4-1.6-0.9-2-1.5c-0.5-0.6-0.8-1.2-1-1.9c-0.2-0.7-0.3-1.4-0.3-2
			c0-0.8,0.1-1.7,0.4-2.6c0.3-1,0.7-1.9,1.5-2.7c0.7-0.8,1.7-1.5,2.9-2C983.8,177,985.4,176.7,987.3,176.7z M978.1,199.9
			c0-0.5,0.7-1,2.1-1.5c1.4-0.5,3-1,4.7-1.3c1.7-0.4,3.3-0.5,4.8-0.6c1.5,0,2.2,0.3,2.2,0.9c0,1.2-0.1,2.8-0.3,5
			c-0.2,2.1-0.4,4.4-0.7,6.8c-0.3,2.4-0.5,4.7-0.8,7.1c-0.3,2.4-0.4,4.4-0.5,6c-0.2,1.7-0.4,3.6-0.5,5.6c-0.2,1.7-0.3,3.6-0.4,5.7
			c-0.1,2.1-0.1,4.2,0,6.4c0,0.4-0.4,0.8-1.3,1.2c-0.9,0.4-1.8,0.7-2.9,0.9c-1.1,0.2-2.1,0.3-3,0.3c-1,0-1.5-0.2-1.6-0.5
			c-0.2-0.3-0.4-0.9-0.5-1.6c-0.2-0.8-0.4-1.9-0.5-3.3c-0.2-1.4-0.3-3.3-0.4-5.6c-0.1-2.3,0-5.1,0.1-8.3c0.4-6.5,0.4-11.4,0.1-15
			C978.4,204.4,978.2,201.7,978.1,199.9z M984,187.6c0.5,0,1.1-0.2,1.8-0.5c0.7-0.4,1.3-0.8,1.8-1.2c0.6-0.5,1.1-1,1.5-1.5
			c0.4-0.5,0.6-1,0.6-1.4c0-0.6-0.4-0.9-1.1-0.9c-0.4,0-1,0.2-1.7,0.5c-0.7,0.3-1.3,0.7-1.9,1.1c-0.6,0.4-1.1,0.9-1.5,1.4
			c-0.4,0.5-0.6,1-0.6,1.5C983,187.2,983.3,187.6,984,187.6z"/>
		<path d="M1018.1,165.6c-0.2,2.8-0.5,6-0.9,9.7c-0.4,3.7-0.9,7.6-1.4,11.8c-0.5,4.2-1,8.6-1.5,13.2c-0.5,4.6-0.9,9.2-1.3,13.9
			c-0.4,4.7-0.5,8.5-0.5,11.4c0,2.9,0.2,5.3,0.6,7.2c0.4,1.9,0.8,3.3,1.5,4.4c0.6,1.1,1.4,2.1,2.4,3.1c-1.1,0.6-2.2,1.1-3.2,1.4
			c-1,0.3-1.8,0.5-2.5,0.7c-0.9,0.2-1.7,0.4-2.4,0.4c-1.3,0-2.5-0.6-3.4-1.7c-1-1.1-1.7-2.6-2.3-4.4c-0.6-1.8-1-3.8-1.3-6
			c-0.3-2.2-0.5-4.4-0.5-6.6c0-2.3,0.1-5,0.3-8.1c0.2-3.1,0.4-6.3,0.6-9.8c0.2-3.5,0.5-7.1,0.7-10.8c0.3-3.8,0.5-7.5,0.7-11.3
			c0.2-2.9,0.4-5.5,0.5-7.8c0.2-2,0.3-3.9,0.4-5.5c0.1-1.7,0-2.7-0.1-3c0.5-0.6,1.2-1.1,2-1.4c0.8-0.3,1.5-0.6,2.2-0.8
			c0.9-0.2,1.8-0.4,2.6-0.6h2.5c0.7,0,1.5,0.1,2.2,0.2S1017.6,165.4,1018.1,165.6z"/>
		<path d="M1063.4,196.4c0.2,6.8,0.3,12.8,0.4,18c0.1,5.1,0.2,9.4,0.3,12.9c0.1,4.1,0.1,7.7,0.1,10.6c0.1,3.7-0.2,7.4-1,11.4
			c-0.7,3.9-2,7.5-3.6,10.8c-1.7,3.3-3.9,5.9-6.6,8c-2.7,2.1-6,3.1-9.9,3.1c-4.7,0-8.2-0.8-10.7-2.5c-2.5-1.7-4.3-3.6-5.4-5.7
			c-1.1-2.1-1.8-4.1-2-5.9c-0.2-1.8-0.3-2.9-0.3-3.2c0-0.6,0.4-1.3,1.3-2.1c0.9-0.8,2.2-1.5,4-2.1c0.7-0.2,1.4-0.4,2.1-0.6
			c0.6-0.2,1.2-0.3,1.8-0.4c0.6-0.1,1.2,0,1.7,0.1c-0.9,1.4-1.4,3-1.5,4.8c-0.1,1.8,0.1,3.5,0.8,5.1c0.7,1.6,1.7,2.9,3,4
			c1.3,1.1,3,1.6,5,1.6c2.8,0,5-0.7,6.7-2.2c1.6-1.4,2.9-3.2,3.7-5.3c0.8-2.1,1.4-4.3,1.6-6.6c0.2-2.3,0.3-4.4,0.3-6.2
			c0-1.4,0-3.2-0.1-5.4c0-2.2-0.2-4.7-0.5-7.4c-1.1,1.6-2.3,3.1-3.7,4.5c-1.4,1.4-2.9,2.7-4.5,3.8c-1.6,1.1-3.2,2-4.8,2.6
			c-1.6,0.7-3.2,1-4.8,1c-2.7,0-4.9-0.8-6.6-2.3c-1.7-1.5-2.9-3.4-3.8-5.7c-0.9-2.3-1.5-4.8-1.8-7.5c-0.3-2.7-0.5-5.1-0.5-7.4
			c0-1.7,0.1-3.8,0.3-6.2c0.2-2.4,0.4-4.8,0.7-7.1c0.3-2.3,0.6-4.2,1-5.9c0.4-1.7,0.8-2.6,1.3-2.9c2.6-1.3,5.1-2.1,7.5-2.2
			c2.5-0.2,4.3,0.1,5.5,0.8c-1.1,0.7-1.9,1.9-2.6,3.5c-0.7,1.6-1.3,3.4-1.7,5.4c-0.4,2-0.7,4-0.9,6.2c-0.2,2.1-0.3,4.1-0.3,5.8
			c0,1.4,0,3.1,0.1,5c0.1,1.9,0.3,3.8,0.6,5.6c0.3,1.8,0.8,3.3,1.4,4.5c0.6,1.2,1.4,1.9,2.4,1.9c1.9,0,3.7-0.6,5.4-1.9
			c1.7-1.2,3.1-2.8,4.4-4.7c1.3-1.9,2.3-3.9,3-6c0.7-2.1,1.1-4.1,1.1-6v-0.9c-0.2-2-0.4-3.9-0.5-5.8c-0.2-1.8-0.3-3.5-0.5-5
			c-0.1-1.5-0.2-2.7-0.3-3.7c0-1-0.1-1.6-0.1-1.9c0-0.8,0.6-1.5,1.8-2.1c1.2-0.6,2.5-1.1,4-1.3c1.5-0.3,2.8-0.4,4-0.3
			C1062.8,195.5,1063.4,195.8,1063.4,196.4z"/>
	</g>
	<g class="st5">
		<path d="M892.9,286.9c-0.8,0.7-1.3,1.9-1.3,3.6c-0.1,1.7,0.2,3.5,0.9,5.2c0.7,1.8,1.7,3.3,3,4.7c1.4,1.4,3.1,2,5.1,2
			c1.3,0,2.4-0.3,3.4-0.9c0.9-0.6,1.7-1.4,2.3-2.4c0.6-0.9,1.1-2,1.3-3.2s0.4-2.3,0.4-3.4c0-1.6-0.3-2.9-0.9-4
			c-0.6-1.1-1.4-2-2.4-2.8c-1-0.8-2.1-1.5-3.4-2c-1.3-0.6-2.6-1.1-3.9-1.7c-1.2-0.5-2.7-1.1-4.4-1.9c-1.7-0.8-3.3-1.7-4.9-3
			c-1.6-1.2-2.9-2.8-4-4.6s-1.6-4.1-1.6-6.7c0-1.7,0.5-3.5,1.4-5.3c0.9-1.8,2.2-3.4,3.9-4.9c1.7-1.5,3.8-2.7,6.2-3.6
			c2.4-0.9,5.1-1.4,8.1-1.4c3,0,5.4,0.3,7.2,0.8c1.8,0.5,3.3,1.2,4.3,2.1c1,0.9,1.7,1.8,2.1,2.8c0.4,1,0.5,1.9,0.5,2.8
			s-0.3,1.8-0.8,2.7c-0.5,0.9-1.2,1.7-1.9,2.5c-0.7,0.8-1.5,1.4-2.3,2c-0.8,0.6-1.4,0.9-1.9,1.1c0.2-0.6,0.5-1.5,0.7-2.6
			c0.2-1.1,0.2-2.2-0.2-3.4c-0.4-1.1-1.2-2.1-2.5-2.9c-1.3-0.8-3.5-1.2-6.4-1.2c-1.7,0-3.4,0.3-5,0.8c-1.6,0.5-3,1.2-4.3,2.1
			c-1.2,0.9-2.2,1.8-3,2.9c-0.7,1.1-1.1,2.2-1.1,3.3c0,1.1,0.4,2.1,1.1,3c0.8,0.9,1.8,1.7,3.1,2.5c1.3,0.8,2.8,1.6,4.4,2.4
			c1.7,0.8,3.4,1.6,5.3,2.3c1.8,0.8,3.6,1.6,5.3,2.5c1.7,0.9,3.3,1.9,4.7,3.1c1.4,1.2,2.5,2.5,3.3,3.9c0.8,1.5,1.2,3.1,1.2,5
			c0,2-0.4,4-1.1,5.9c-0.8,1.9-1.8,3.5-3.2,4.9c-1.4,1.4-3.1,2.5-5.1,3.4c-2,0.8-4.2,1.3-6.8,1.3c-2.2,0-4.3-0.4-6.3-1.1
			c-2-0.7-3.7-1.7-5.2-2.8c-1.5-1.2-2.7-2.5-3.5-3.9c-0.9-1.4-1.3-2.8-1.3-4.2c0-1.5,0.3-2.7,1-3.7c0.7-1,1.5-1.8,2.4-2.4
			c1-0.6,2-1,3-1.3C891.1,286.8,892.1,286.8,892.9,286.9z"/>
		<path d="M948.3,267.7c-0.5-0.1-1.3-0.2-2.1-0.3c-0.9-0.1-1.8-0.2-2.7-0.2c-1.1,0-2.2-0.1-3.4-0.1c-1.2-0.1-2.7-0.1-4.6,0
			c-1.8,0.1-3.7,0.1-5.7,0.1c0,1.3-0.1,2.5-0.3,3.9c-0.1,1.3-0.2,2.6-0.3,3.9c-0.2,2.3-0.4,4.7-0.6,7.1c-0.2,2.4-0.3,4.7-0.3,6.9
			s0.1,4.2,0.4,5.9c0.3,1.8,0.8,3.2,1.5,4.2c-0.6,0.4-1.2,0.8-1.9,1c-0.7,0.2-1.3,0.4-1.8,0.5c-0.6,0.1-1.3,0.2-1.9,0.2
			c-0.6,0-1.1-0.2-1.5-0.6c-0.4-0.4-0.6-1.1-0.7-2c-0.1-1.7-0.1-3.3,0-5c0.1-1.7,0.2-3.4,0.3-5.3c0.1-1.8,0.3-3.8,0.4-5.9
			s0.3-4.4,0.4-7c0.1-2.6,0.2-5.2,0.2-7.6c-1.8,0-3.4,0.1-4.7,0.1s-2,0-2.1-0.1c-0.1-0.1-0.3-0.3-0.5-0.7c-0.2-0.3-0.4-0.7-0.8-1.3
			c-0.3-0.6-0.7-1.4-1.2-2.5c0.9,0,1.9,0,3,0c1.1,0,2.1,0,3-0.1c1.1,0,2.1-0.1,3.2-0.1c0-0.8-0.1-1.6-0.1-2.5c0-0.7-0.1-1.4-0.1-2.3
			c0-0.8,0-1.6-0.1-2.4c0-0.3,0.4-0.6,1.1-1.1c0.7-0.4,1.5-0.8,2.3-1.1c0.8-0.3,1.6-0.6,2.3-0.7c0.7-0.1,1.1,0.1,1.1,0.5
			s0,1.5,0,3.2c0,1.7-0.1,3.7-0.2,6.1c0.5,0,0.8,0,1.1-0.1c2.6-0.1,4.6-0.2,6.2-0.3c1.6-0.1,2.9-0.1,3.9,0c1,0.1,1.9,0.3,2.7,0.7
			c0.8,0.4,1.7,1,2.6,1.9c0.3,0.3,0.6,0.6,0.9,0.9c0.2,0.3,0.4,0.6,0.6,1C948.2,266.9,948.3,267.3,948.3,267.7z"/>
		<path d="M957.1,296.4c0.1,0.3,0.2,0.7,0.4,0.9c0.1,0.2,0.4,0.5,0.6,0.7c0.3,0.2,0.6,0.4,1,0.4c-0.3,0.7-0.7,1.1-1,1.4
			c-0.2,0.1-0.4,0.2-0.5,0.3c-0.4,0.1-1.1,0.2-2,0.2s-1.7-0.3-2.5-0.8c-0.3-0.2-0.6-0.6-0.8-1.1c-0.2-0.4-0.4-0.9-0.6-1.6
			c-0.2-0.7-0.3-1.6-0.4-2.7c-0.7,1.5-1.4,2.6-2.3,3.5c-0.9,0.9-1.7,1.5-2.5,1.9c-0.9,0.5-1.9,0.8-2.8,0.9c-1.2,0.1-2.4-0.1-3.5-0.6
			c-1.1-0.5-2-1.3-2.8-2.3c-0.8-1-1.3-2.3-1.7-3.8c-0.4-1.5-0.5-3.2-0.4-5.1c0.1-2,0.5-3.8,1.2-5.3c0.6-1.6,1.4-2.9,2.3-4.2
			c0.9-1.2,1.8-2.2,2.8-3.1c1-0.8,1.9-1.6,2.8-2.1c0.9-0.6,1.7-1,2.3-1.2c0.7-0.3,1.1-0.4,1.3-0.5c0.5-0.1,1-0.2,1.4-0.1
			c0.4,0,0.7,0.3,1,0.7c0.1,0.1,0.2,0.3,0.4,0.5c0.1,0.2,0.2,0.4,0.4,0.8c0.1,0.3,0.3,0.7,0.4,1.1c-1.2,0.5-2.3,1.1-3.3,1.8
			c-1,0.7-2,1.4-2.8,2.4c-0.9,0.9-1.6,2-2.2,3.4c-0.6,1.3-1.1,2.9-1.5,4.8c-0.5,2.4-0.4,4.3,0.4,5.8c0.8,1.5,1.8,2.1,3.1,1.8
			c0.8-0.2,1.5-0.7,2.3-1.4c0.6-0.6,1.3-1.5,2-2.6c0.7-1.2,1.4-2.8,2-4.8c0.2-2.9,0.4-5.2,0.6-6.9c0.2-1.7,0.3-2.9,0.5-3.8
			c0.2-1,0.3-1.7,0.4-2c0.1-0.2,0.4-0.5,0.9-0.7c0.4-0.2,0.9-0.4,1.5-0.5c0.5-0.1,1-0.2,1.5-0.3c0.4,0,0.7,0,0.9,0
			c0.1,0,0.1,0.6,0.1,1.8c0,1.1,0,2.6-0.1,4.3c-0.1,1.7-0.2,3.6-0.3,5.6c-0.1,2-0.2,3.9-0.3,5.7c-0.1,1.8-0.1,3.4-0.1,4.7
			C956.9,295.2,957,296,957.1,296.4z"/>
		<path d="M970.9,298.1c0,0.3-0.3,0.6-0.8,0.9c-0.5,0.3-1,0.6-1.6,0.8c-0.6,0.2-1.2,0.4-1.7,0.5s-0.9,0-1.1-0.2
			c-0.2-0.2-0.5-0.6-0.9-1.1c-0.4-0.5-0.7-1.4-0.8-2.6c-0.1-1.3-0.1-2.9-0.1-4.8c0-1.9,0-4-0.1-6.4v-2.9c0-0.9,0-1.9,0-3.1
			c0-1.2-0.1-2.4-0.1-3.6c0.4-0.2,0.9-0.5,1.3-0.7c0.5-0.2,0.9-0.4,1.3-0.5c0.4-0.2,0.8-0.3,1.2-0.4c1-0.3,1.8-0.5,2.3-0.5
			c0.5,0,0.8,0.1,0.9,0.5c0,0.3,0,1-0.1,2.1c-0.1,1-0.2,2.4-0.4,4.4c-0.1,2-0.4,4.7-0.7,8.2c0.6-1.6,1.2-2.9,1.6-4
			c0.4-1.1,0.8-2,1.1-2.7c0.3-0.8,0.6-1.5,0.8-2c0.2-0.6,0.6-1.3,0.9-2.1c0.4-0.8,0.8-1.5,1.2-2.2c0.4-0.7,0.8-1.3,1.2-1.8
			c0.4-0.5,0.6-0.8,0.8-0.9c0.1-0.1,0.6-0.1,1.3,0c0.7,0.1,1.5,0.3,2.3,0.7c0.8,0.4,1.6,0.9,2.4,1.5c0.8,0.7,1.3,1.4,1.5,2.4
			c0.3,1.1,0.4,2.5,0.3,4.2c-0.1,1.7-0.2,3.5-0.4,5.4c-0.2,1.8-0.3,3.6-0.4,5.2c-0.1,1.7,0,2.9,0.3,3.8c0.1,0.5,0.2,0.9,0.4,1.3
			c0.1,0.4,0.2,0.7,0.4,1.1c0.2,0.3,0.4,0.5,0.5,0.7c-1.2,0.5-2.1,0.9-2.8,1.2c-0.7,0.2-1.3,0.4-1.7,0.5c-0.5,0.1-0.8,0.2-1,0.1
			c-0.4-0.1-0.8-0.5-1.1-1.1c-0.3-0.6-0.6-1.5-0.8-2.8c-0.1-0.4-0.1-1-0.1-1.9c0-0.9,0.1-1.9,0.2-3.1c0.1-1.1,0.2-2.3,0.3-3.6
			c0.1-1.2,0.2-2.4,0.3-3.5c0.1-1.1,0.1-2,0.2-2.8c0-0.8,0-1.3,0-1.6c-0.2-0.9-0.6-1.5-1-1.9c-0.4-0.4-0.8-0.4-1-0.1
			c-0.6,0.7-1.3,1.9-2,3.5c-0.7,1.6-1.4,3.4-2,5.3c-0.6,1.9-1.2,3.8-1.6,5.7C971.3,295.2,971,296.8,970.9,298.1z"/>
		<path d="M1013.9,253.9c0,0.5,0,1.6-0.1,3.1c-0.1,1.6-0.2,3.4-0.4,5.6c-0.1,2.2-0.3,4.6-0.4,7.2c-0.1,2.6-0.3,5.3-0.4,8
			c-0.1,2.7-0.2,5.3-0.3,7.6c-0.1,2.4-0.1,4.5-0.1,6.3c0,1.8,0.1,3.4,0.3,4.6c0.1,1.2,0.4,2.1,0.7,2.5l-3.3,1.2
			c-0.2,0.1-0.5,0.1-0.9,0.1c-0.3,0-0.7-0.1-1.1-0.3c-0.4-0.2-0.7-0.5-0.9-1c-0.2-0.5-0.4-1.2-0.4-2c0-0.3,0-0.8,0-1.3
			c0-0.5,0-1.1,0-1.8c-0.6,1-1.2,1.9-1.9,2.8c-0.7,0.9-1.4,1.7-2.2,2.4c-0.8,0.7-1.7,1.2-2.6,1.6c-0.9,0.4-1.9,0.6-2.9,0.6
			c-1,0-1.9-0.2-2.8-0.6c-0.9-0.4-1.7-1-2.5-1.9c-0.7-0.8-1.3-1.9-1.8-3.2c-0.5-1.3-0.7-2.9-0.7-4.7c0-3.4,0.4-6.3,1.2-8.8
			c0.8-2.5,1.8-4.6,2.9-6.3c1.2-1.7,2.5-2.9,3.9-3.8c1.4-0.8,2.7-1.3,3.8-1.3c1.8,0,3.2,0.5,4.2,1.4c1,0.9,1.7,1.9,2.1,2.9
			c0-1.4,0.1-2.7,0.1-4c0-1.2,0-2.3,0-3.2c0-3.6-0.1-6.8-0.2-9.6c-0.1-2.8-0.5-5-1.1-6.4c0.7-0.4,1.3-0.7,1.9-0.9
			c0.6-0.2,1.1-0.3,1.5-0.4c0.5-0.1,1-0.2,1.4-0.2c1.1,0,1.8,0.3,2.3,0.9C1013.7,252,1013.9,252.8,1013.9,253.9z M1007,287.6
			c0.1-1.3,0.2-2.6,0.2-4c0-1.4,0.1-2.8,0.1-4.2c-0.3,0.5-0.7,1-1.2,1.4c-0.5,0.4-1,0.5-1.5,0.3c0.2-1.5,0.2-2.6,0-3.4
			c-0.2-0.8-0.5-1.4-0.9-1.7c-0.4-0.4-0.9-0.7-1.5-0.7c-0.9,0-1.7,0.5-2.6,1.5c-0.9,1-1.6,2.2-2.3,3.6c-0.7,1.4-1.2,3-1.6,4.6
			c-0.4,1.6-0.6,3.1-0.6,4.5c0,2.7,0.4,4.6,1.1,5.7c0.8,1.1,1.6,1.6,2.4,1.6c0.7,0,1.5-0.3,2.3-0.9c0.8-0.6,1.6-1.3,2.3-2.3
			c0.8-0.9,1.5-1.9,2.1-3C1006,289.6,1006.6,288.6,1007,287.6z"/>
	</g>
	<g class="st5">
		<path d="M1049.2,328.2c-0.4,0.6-0.9,1-1.4,1.3s-1.1,0.5-1.6,0.7c-0.6,0.2-1.2,0.2-1.9,0.2c-0.2,0-0.5-0.1-0.8-0.2
			c-0.2-0.1-0.5-0.2-0.8-0.3c-0.3-0.1-0.5-0.4-0.7-0.7c-0.6-2.1-1.1-4.1-1.6-6c-0.5-1.9-0.9-3.7-1.2-5.2c-0.4-1.8-0.8-3.5-1.1-5
			c-1.1,0-2.8-0.1-5,0c-2.2,0-4.6,0.2-7.2,0.4c-0.8,2.5-1.4,4.6-1.9,6.3c-0.5,1.7-0.8,3.1-1,4.2c-0.2,1.1-0.3,2-0.2,2.8
			c0,0.7,0.2,1.4,0.4,1.9c-0.6,0.6-1.2,1-1.7,1.3c-0.6,0.3-1.1,0.4-1.5,0.5c-0.5,0.1-1.1,0.2-1.6,0.1c-0.7-0.1-1.2-0.2-1.6-0.3
			c-0.4-0.1-0.7-0.4-0.9-0.7c-0.2-0.3-0.2-0.8-0.2-1.3c0.1-0.6,0.2-1.3,0.5-2.3c0.2-0.8,0.7-2.3,1.4-4.4c0.7-2.1,1.5-4.6,2.3-7.3
			c-1.6,0.1-2.8,0-3.6-0.2c-0.9-0.3-1.4-1.1-1.8-2.4c0.7-0.2,1.4-0.4,2.1-0.6c0.8-0.2,1.5-0.4,2.2-0.5c0.8-0.2,1.6-0.3,2.4-0.4
			c0.9-2.7,1.8-5.4,2.7-8.1c0.9-2.7,1.8-5,2.6-7.2l3.6-9.6c0.1-0.2,0.5-0.5,1.3-0.8c0.8-0.3,1.7-0.5,2.6-0.7c1-0.2,1.9-0.3,2.7-0.3
			s1.4,0.2,1.7,0.6c0.1,0.9,0.3,1.9,0.5,3.2c0.2,1.3,0.4,2.5,0.7,3.7c0.2,1.4,0.5,2.9,0.9,4.4c0.4,2.1,0.8,4.4,1.2,6.9
			c0.4,2.5,1,5.2,1.6,8.1c0.7,2.9,1.5,5.8,2.4,8.9C1046.6,321.9,1047.8,325,1049.2,328.2z M1031.9,308.7c1.3,0,2.4-0.1,3.3-0.1
			s1.6,0,2.2,0.1l-0.2-0.9c-0.2-1.5-0.5-3.2-0.8-4.9c-0.3-1.7-0.5-3.5-0.8-5.2c-0.3-1.7-0.5-3.3-0.8-4.9c-0.2-1.5-0.5-2.9-0.6-4
			c-0.4,1.1-0.9,2.4-1.4,3.9c-0.5,1.5-1.1,3.2-1.7,4.9c-0.6,1.8-1.3,3.6-1.9,5.6c-0.6,1.9-1.3,3.9-1.9,5.8c0.7-0.1,1.5-0.1,2.2-0.2
			C1030.2,308.8,1031,308.7,1031.9,308.7z"/>
		<path d="M1065.1,282.6c1.6,0,3.2,0.2,4.9,0.7c1.7,0.5,3.3,1.3,4.7,2.4c1.4,1.1,2.6,2.5,3.5,4.3c0.9,1.8,1.4,3.9,1.4,6.4
			c0,2.3-0.4,4.5-1.3,6.7c-0.9,2.2-2.1,4.1-3.6,5.9c-1.6,1.8-3.4,3.3-5.6,4.6c-2.2,1.3-4.6,2.1-7.3,2.6c0,1.7,0.1,3.2,0.2,4.4
			c0,1.2,0.1,2.1,0.2,3c0.1,0.8,0.1,1.5,0.2,2.1c0.1,0.6,0.1,1.1,0.2,1.6c0.1,0.5,0.2,0.9,0.3,1.4c-0.8,0.6-1.6,1.1-2.4,1.4
			c-0.7,0.3-1.4,0.5-2,0.6c-0.7,0.2-1.3,0.2-1.9,0.1c-0.2-0.5-0.4-1.1-0.6-1.8c-0.2-0.6-0.3-1.5-0.3-2.5c-0.1-1-0.1-2.4-0.1-4
			c0-1.6,0-3.6,0.1-6.1c-0.3,0-0.7-0.1-1.1-0.1c-0.4,0-0.7-0.1-1.1-0.2c-0.3-0.7-0.5-1.2-0.6-1.7c-0.1-0.5-0.1-0.9-0.1-1.2
			c0-0.4,0-0.7,0.1-1c0.3,0,0.7,0.1,1,0.1c0.3,0,0.6,0,0.9,0c0.3,0,0.6,0.1,0.9,0.1c0.1-1.9,0.2-3.9,0.3-5.9c0.1-2.1,0.2-4.1,0.2-6
			c0.1-1.9,0.1-3.8,0.2-5.6s0.1-3.4,0.2-4.8c-1.2,0.8-2.3,1.9-3.3,3.2c-0.9,1.3-1.5,2.9-1.8,4.6c-0.5-0.1-1-0.3-1.4-0.8
			c-0.4-0.4-0.7-0.9-0.9-1.3c-0.3-0.5-0.5-1.1-0.7-1.8c-0.2-0.8-0.2-1.6,0-2.4s0.5-1.6,0.9-2.3c0.4-0.7,0.9-1.4,1.4-1.9
			c0.5-0.6,1.1-1,1.6-1.3c0.9-0.5,1.8-1,2.7-1.5c0.9-0.4,1.9-0.8,3.1-1.1c0.5-0.5,1-0.9,1.5-1.2c0.6-0.4,1.1-0.6,1.6-0.7
			c0.7-0.2,1,0.3,1.1,1.3c0.4,0,0.8-0.1,1.2-0.1C1064.2,282.6,1064.7,282.6,1065.1,282.6z M1061.8,311.5c1.1-0.3,2.3-0.8,3.7-1.5
			c1.3-0.7,2.6-1.5,3.7-2.6c1.2-1.1,2.1-2.5,2.9-4.1c0.8-1.6,1.2-3.6,1.2-5.8c0-1.7-0.3-3.2-0.9-4.4c-0.6-1.2-1.4-2.2-2.3-3
			c-1-0.8-2-1.3-3.1-1.7c-1.1-0.4-2.3-0.5-3.4-0.5c-0.2,0-0.4,0-0.6,0c-0.2,0-0.4,0-0.6,0.1c-0.1,1.3-0.2,2.8-0.2,4.3
			c0,1,0,2.3-0.1,3.8c0,1.5-0.1,3.1-0.1,4.8c0,1.7-0.1,3.5-0.1,5.4C1061.8,307.9,1061.8,309.8,1061.8,311.5z"/>
		<path d="M1094.4,282.6c1.6,0,3.2,0.2,4.9,0.7c1.7,0.5,3.3,1.3,4.7,2.4c1.4,1.1,2.6,2.5,3.5,4.3c0.9,1.8,1.4,3.9,1.4,6.4
			c0,2.3-0.4,4.5-1.3,6.7c-0.9,2.2-2.1,4.1-3.6,5.9c-1.6,1.8-3.4,3.3-5.6,4.6c-2.2,1.3-4.6,2.1-7.3,2.6c0,1.7,0.1,3.2,0.2,4.4
			c0,1.2,0.1,2.1,0.2,3c0.1,0.8,0.1,1.5,0.2,2.1c0.1,0.6,0.1,1.1,0.2,1.6c0.1,0.5,0.2,0.9,0.3,1.4c-0.8,0.6-1.6,1.1-2.4,1.4
			c-0.7,0.3-1.4,0.5-2,0.6c-0.7,0.2-1.3,0.2-1.9,0.1c-0.2-0.5-0.4-1.1-0.6-1.8c-0.2-0.6-0.3-1.5-0.3-2.5c-0.1-1-0.1-2.4-0.1-4
			c0-1.6,0-3.6,0.1-6.1c-0.3,0-0.7-0.1-1.1-0.1c-0.4,0-0.7-0.1-1.1-0.2c-0.3-0.7-0.5-1.2-0.6-1.7c-0.1-0.5-0.1-0.9-0.1-1.2
			c0-0.4,0-0.7,0.1-1c0.3,0,0.7,0.1,1,0.1c0.3,0,0.6,0,0.9,0c0.3,0,0.6,0.1,0.9,0.1c0.1-1.9,0.2-3.9,0.3-5.9c0.1-2.1,0.2-4.1,0.2-6
			c0.1-1.9,0.1-3.8,0.2-5.6s0.1-3.4,0.2-4.8c-1.2,0.8-2.3,1.9-3.3,3.2c-0.9,1.3-1.5,2.9-1.8,4.6c-0.5-0.1-1-0.3-1.4-0.8
			c-0.4-0.4-0.7-0.9-0.9-1.3c-0.3-0.5-0.5-1.1-0.7-1.8c-0.2-0.8-0.2-1.6,0-2.4s0.5-1.6,0.9-2.3c0.4-0.7,0.9-1.4,1.4-1.9
			c0.5-0.6,1.1-1,1.6-1.3c0.9-0.5,1.8-1,2.7-1.5c0.9-0.4,1.9-0.8,3.1-1.1c0.5-0.5,1-0.9,1.5-1.2c0.6-0.4,1.1-0.6,1.6-0.7
			c0.7-0.2,1,0.3,1.1,1.3c0.4,0,0.8-0.1,1.2-0.1C1093.5,282.6,1093.9,282.6,1094.4,282.6z M1091,311.5c1.1-0.3,2.3-0.8,3.7-1.5
			c1.3-0.7,2.6-1.5,3.7-2.6c1.2-1.1,2.1-2.5,2.9-4.1c0.8-1.6,1.2-3.6,1.2-5.8c0-1.7-0.3-3.2-0.9-4.4c-0.6-1.2-1.4-2.2-2.3-3
			c-1-0.8-2-1.3-3.1-1.7c-1.1-0.4-2.3-0.5-3.4-0.5c-0.2,0-0.4,0-0.6,0c-0.2,0-0.4,0-0.6,0.1c-0.1,1.3-0.2,2.8-0.2,4.3
			c0,1,0,2.3-0.1,3.8c0,1.5-0.1,3.1-0.1,4.8c0,1.7-0.1,3.5-0.1,5.4C1091,307.9,1091,309.8,1091,311.5z"/>
	</g>
</g>
<g>
	<g>
		<path class="st1" d="M628.2-200.1c5.5,12.5,14,25,23.4,34.3c9.8,9.7,21.6,17.5,34.3,22.8c18,7.5,36,10,55.1,7.5
			c11.1-1.4,20.4-4.1,29.8-8.4c27.8-12.7,48.8-36.4,57.6-65.6c1.8-6.1,3.3-13.2,2.6-13.1c-0.3,0-1,1.4-1.5,3.8
			c-2.6,10.1-5.5,17.5-10,25.4c-3.8,6.6-6.8,10.6-11.7,16.3c-5.6,6.3-10.2,10.2-17.7,15.3c-11.6,7.7-23.5,12.6-36.8,14.7
			c-32.7,5.4-65.8-6.4-87.8-31.3c-1.8-2-4.9-6.1-7.4-9.9l-4.3-6.3l-12.9-4c-7.1-2.1-13.1-4-13.2-4
			C627.4-202.3,627.6-201.3,628.2-200.1z"/>
		<path class="st2" d="M784.1-169.6c12.8-9.1,23-21.9,28.7-36.5c1.8-4.5,4-13.4,4.6-18.4c0.6-5.1,0.6-12.5,0.2-16.3
			c-0.2-1.7-0.3-3.1-0.2-3.2c0.2-0.1,5.3,0.1,14.5,0.5c2,0.1,3.5,0.1,3.2-0.1c-0.3-0.2-9.8-4.8-20.9-10.2l-20.4-10l1.1,2.7
			c8.4,21.1,5.5,44.7-7.7,64c-17,24.6-47.8,36.5-76.6,29.3c-16.2-4.1-30.4-13.7-38.8-26.4c-1.8-2.7-2-3-1.8-1.9
			c0.4,1.7,6,10.4,8.7,13.8c17,20.6,43.5,30.6,70.8,26.5c5.4-0.9,12.5-2.8,17.8-4.9C772.5-162.6,780.3-166.8,784.1-169.6z"/>
		<path class="st3" d="M676.7-301.2c-12.8,9.1-23,21.9-28.7,36.5c-1.8,4.5-4,13.4-4.6,18.4c-0.6,5.1-0.6,12.5-0.2,16.3
			c0.2,1.7,0.3,3.1,0.2,3.2c-0.2,0.1-5.3-0.1-14.5-0.5c-2-0.1-3.5-0.1-3.2,0.1c0.3,0.2,9.8,4.8,20.9,10.2l20.4,10l-1.1-2.7
			c-8.4-21.1-5.5-44.7,7.7-64c17-24.6,47.8-36.5,76.6-29.3c16.2,4.1,30.4,13.7,38.8,26.4c1.8,2.7,2,3,1.8,1.9
			c-0.4-1.7-6-10.4-8.7-13.8c-17-20.6-43.5-30.6-70.8-26.5c-5.4,0.9-12.5,2.8-17.8,4.9C688.5-308.2,680.6-304,676.7-301.2z"/>
		<path class="st4" d="M832.7-272.2c-5.5-12.5-14.1-25.2-23.4-34.5c-9.8-9.7-21.6-17.6-34.2-23c-18-7.6-35.9-10.1-54.9-7.7
			c-11,1.4-20.3,4-29.7,8.2c-27.6,12.6-48.4,36.1-57.1,65.2c-1.8,6.1-3.2,13.2-2.6,13.1c0.3,0,0.9-1.4,1.4-3.8
			c2.6-10.1,5.4-17.5,9.9-25.4c3.8-6.6,6.6-10.6,11.6-16.2c5.6-6.2,10.1-10.2,17.5-15.2c11.5-7.7,23.4-12.5,36.5-14.5
			c32.5-5.3,65.6,6.8,87.7,31.8c1.8,2,4.9,6.1,7.5,9.9l4.3,6.3l12.9,4c7.1,2.1,13,4,13.2,4C833.6-270,833.4-271,832.7-272.2z"/>
	</g>
	<text transform="matrix(1.1318 0 0 1 855.9789 -236.4351)" style="font-family:'Rancho-Regular'; font-size:119.4179px;">Daily</text>
	<text transform="matrix(1 0 0 1 888.2827 -177.5416)" style="font-family:'Rancho-Regular'; font-size:74.5812px;">Stand</text>
	<text transform="matrix(1 0 0 1 1021.4955 -152.5362)" style="font-family:'Rancho-Regular'; font-size:63.7048px;">APP</text>
</g>
</svg>
